<svg xmlns="http://www.w3.org/2000/svg" xmlns:xlink="http://www.w3.org/1999/xlink" viewBox="0 0 1440 1024"><defs><style>.cls-1{opacity:0.5;}.cls-2{fill:url(#linear-gradient);}.cls-3{fill:#4481eb;}.cls-4{fill:#3e79ce;}.cls-5{fill:url(#gradient_bitch);}.cls-6{fill:#89dffa;}.cls-7{fill:#e8e8e8;}.cls-8{fill:#c1c1c1;}.cls-9{fill:#f9f9f9;}.cls-10{fill:#f4ac38;}.cls-11{fill:#f4bd76;}.cls-12{fill:url(#linear-gradient-2);}.cls-13{fill:#eee;}.cls-14{fill:#2b282b;}.cls-15,.cls-19{fill:#443e44;}.cls-15,.cls-41{opacity:0.8;}.cls-16,.cls-21,.cls-31,.cls-32{fill:#161516;}.cls-16{opacity:0.12;}.cls-17{fill:#fcc940;}.cls-18{fill:url(#linear-gradient-3);}.cls-20{fill:url(#linear-gradient-4);}.cls-21{opacity:0.08;}.cls-22{fill:url(#linear-gradient-5);}.cls-23{fill:url(#linear-gradient-6);}.cls-24{fill:url(#linear-gradient-7);}.cls-25{fill:url(#linear-gradient-8);}.cls-26{fill:url(#linear-gradient-9);}.cls-27{fill:url(#linear-gradient-10);}.cls-28{fill:url(#linear-gradient-11);}.cls-29,.cls-36,.cls-41{fill:#c5c5c5;}.cls-29{opacity:0.7;}.cls-30{fill:url(#linear-gradient-12);}.cls-31{opacity:0.03;}.cls-32{opacity:0.05;}.cls-33{fill:#3772ff;}.cls-34{fill:#24478d;}.cls-35{fill:#e5e7e5;}.cls-37{fill:url(#linear-gradient-13);}.cls-38{fill:url(#linear-gradient-14);}.cls-39{fill:url(#linear-gradient-15);}.cls-40{fill:url(#linear-gradient-16);}.cls-42{fill:#d5d5d5;}.cls-43{fill:#5e585e;}.cls-44{fill:url(#linear-gradient-17);}.cls-45{fill:url(#linear-gradient-18);}.cls-46{fill:url(#linear-gradient-19);}.cls-47{fill:url(#linear-gradient-20);}.cls-48{fill:#e0e0e0;}.cls-49{fill:#c6c6c6;}.cls-50{fill:url(#linear-gradient-21);}</style><linearGradient id="linear-gradient" x1="806.51" y1="427.46" x2="970.89" y2="278.54" gradientUnits="userSpaceOnUse"><stop offset="0" stop-color="#333cc9"/><stop offset="1" stop-color="#5bdff3"/></linearGradient><linearGradient id="gradient_bitch" x1="813.44" y1="1019.65" x2="1616.59" y2="292.02" gradientUnits="userSpaceOnUse"><stop offset="0" stop-color="#5bdff3"/><stop offset="0.12" stop-color="#59d6f1"/><stop offset="0.31" stop-color="#52bcea"/><stop offset="0.56" stop-color="#4893df"/><stop offset="0.85" stop-color="#3a5ad1"/><stop offset="0.99" stop-color="#333cc9"/></linearGradient><linearGradient id="linear-gradient-2" x1="1084.35" y1="803.68" x2="1636.01" y2="303.89" gradientUnits="userSpaceOnUse"><stop offset="0" stop-color="#c43a30"/><stop offset="0.15" stop-color="#bf3c39"/><stop offset="0.41" stop-color="#b14053"/><stop offset="0.73" stop-color="#9b477c"/><stop offset="0.99" stop-color="#874da2"/></linearGradient><linearGradient id="linear-gradient-3" x1="1086.39" y1="805.91" x2="1637.99" y2="306.18" xlink:href="#linear-gradient-2"/><linearGradient id="linear-gradient-4" x1="1047.55" y1="763.12" x2="1599.22" y2="263.32" xlink:href="#linear-gradient-2"/><linearGradient id="linear-gradient-5" x1="1057.47" y1="774.07" x2="1609.14" y2="274.27" xlink:href="#linear-gradient-2"/><linearGradient id="linear-gradient-6" x1="1028.34" y1="746.55" x2="1469.17" y2="347.17" xlink:href="#linear-gradient-2"/><linearGradient id="linear-gradient-7" x1="1028.94" y1="742.08" x2="1144.41" y2="637.46" xlink:href="#linear-gradient-2"/><linearGradient id="linear-gradient-8" x1="1033.13" y1="750.4" x2="1590.28" y2="245.64" xlink:href="#linear-gradient-2"/><linearGradient id="linear-gradient-9" x1="1026.94" y1="745.99" x2="1339.88" y2="462.48" xlink:href="#linear-gradient-2"/><linearGradient id="linear-gradient-10" x1="1029.01" y1="742.06" x2="1298.44" y2="497.96" xlink:href="#linear-gradient-2"/><linearGradient id="linear-gradient-11" x1="1031.02" y1="748.59" x2="1589.05" y2="243.03" xlink:href="#linear-gradient-2"/><linearGradient id="linear-gradient-12" x1="1050.73" y1="766.56" x2="1602.37" y2="266.79" xlink:href="#linear-gradient-2"/><linearGradient id="linear-gradient-13" x1="1084.12" y1="803.42" x2="1635.77" y2="303.64" xlink:href="#linear-gradient-2"/><linearGradient id="linear-gradient-14" x1="1085.15" y1="804.56" x2="1636.8" y2="304.78" xlink:href="#linear-gradient-2"/><linearGradient id="linear-gradient-15" x1="1087.76" y1="807.44" x2="1639.41" y2="307.65" xlink:href="#linear-gradient-2"/><linearGradient id="linear-gradient-16" x1="1086.44" y1="805.98" x2="1638.07" y2="306.21" xlink:href="#linear-gradient-2"/><linearGradient id="linear-gradient-17" x1="978.38" y1="686.19" x2="1113.1" y2="564.15" xlink:href="#linear-gradient-2"/><linearGradient id="linear-gradient-18" x1="978.17" y1="689.47" x2="1538.43" y2="181.89" xlink:href="#linear-gradient-2"/><linearGradient id="linear-gradient-19" x1="1007.39" y1="718.6" x2="1559.06" y2="218.8" xlink:href="#linear-gradient-2"/><linearGradient id="linear-gradient-20" x1="1000.22" y1="710.61" x2="1551.86" y2="210.84" xlink:href="#linear-gradient-2"/><linearGradient id="linear-gradient-21" x1="1185.79" y1="448.62" x2="1286.49" y2="357.38" xlink:href="#linear-gradient"/></defs><title>Artboard 19 copy 15</title><g id="Layer_24" data-name="Layer 24"><g class="cls-1"><ellipse class="cls-2" cx="888.7" cy="353" rx="110.82" ry="111"/><path class="cls-3" d="M921.8,425.51a21.61,21.61,0,0,1-30.59,0,18.6,18.6,0,0,1-1.82-2.1A21.66,21.66,0,0,1,919.71,393a22.79,22.79,0,0,1,2.09,1.86A21.69,21.69,0,0,1,921.8,425.51Z"/><path class="cls-4" d="M917.85,421.54A19,19,0,1,1,919.71,393,21.59,21.59,0,0,1,917.85,421.54Z"/><path class="cls-3" d="M868.72,364.41a33.28,33.28,0,0,1-47.13,0,27.21,27.21,0,0,1-2.8-3.23,33.36,33.36,0,0,1,46.7-46.87,39.47,39.47,0,0,1,3.23,2.87A33.4,33.4,0,0,1,868.72,364.41Z"/><path class="cls-4" d="M862.62,358.31a33.25,33.25,0,0,1-43.83,2.87,33.36,33.36,0,0,1,46.7-46.87A33.44,33.44,0,0,1,862.62,358.31Z"/><path class="cls-4" d="M958.12,303.53a19.51,19.51,0,0,1-10.43,25.53,15.43,15.43,0,0,1-2.37.81,19.51,19.51,0,0,1-15-35.67,19,19,0,0,1,2.26-1.12A19.46,19.46,0,0,1,958.12,303.53Z"/><path class="cls-3" d="M953.47,305.48a17.11,17.11,0,1,1-23.12-11.28A19.5,19.5,0,0,1,953.47,305.48Z"/></g><path class="cls-5" d="M1441.48,1011h-.66v13H826.51l-1.44-1.16h0l-.44-.36q-8.91-7.14-17.32-14.48c-1.26-1.09-2.5-2.19-3.74-3.29l0,0-1.9-1.7-.48-.43-3.24-2.94A437.62,437.62,0,0,1,765,966.17q-1.5-1.71-3-3.42c-.88-1-1.74-2-2.6-3-1.15-1.38-2.3-2.76-3.43-4.14l-.38-.46L754,953c-19.49-24.35-34.51-49.75-43.86-75.82-.11-.29-.22-.58-.32-.87-.59-1.65-1.14-3.3-1.67-5a1,1,0,0,1-.08-.23c-.19-.58-.37-1.16-.55-1.74-.42-1.33-.82-2.65-1.21-4q-2.17-7.49-3.71-15c-.2-1-.39-2-.57-3-10.58-57.13,7.33-116.61,65.89-174.42,137.78-136,43.57-283.56,163.34-318.45C1211.19,273,1168.32,166.67,1313,124c48.59-14.33,91.09-23,127.8-26v912.53Z"/><polygon class="cls-3" points="1340.73 787.5 1338.79 799.3 1327 801.25 1338.79 803.2 1340.73 815 1342.67 803.2 1354.46 801.25 1342.67 799.3 1340.73 787.5"/><polygon class="cls-3" points="1396.89 711.25 1394.95 723.05 1383.16 725 1394.95 726.95 1396.89 738.75 1398.83 726.95 1410.62 725 1398.83 723.05 1396.89 711.25"/><polygon class="cls-3" points="1170.44 526.8 1168.5 515 1166.56 526.8 1154.77 528.75 1166.56 530.7 1168.5 542.5 1170.44 530.7 1182.23 528.75 1170.44 526.8"/><polygon class="cls-3" points="1093.07 445.56 1091.12 433.75 1089.18 445.56 1077.4 447.5 1089.18 449.44 1091.12 461.25 1093.07 449.44 1104.85 447.5 1093.07 445.56"/><polygon class="cls-3" points="1195.96 420 1194.02 431.81 1182.23 433.75 1194.02 435.69 1195.96 447.5 1197.9 435.69 1209.69 433.75 1197.9 431.81 1195.96 420"/><polygon class="cls-3" points="1189.72 707.5 1187.78 719.3 1175.99 721.25 1187.78 723.2 1189.72 735 1191.66 723.2 1203.45 721.25 1191.66 719.3 1189.72 707.5"/><polygon class="cls-3" points="1294.55 693.75 1292.61 705.55 1280.82 707.5 1292.61 709.45 1294.55 721.25 1296.49 709.45 1308.28 707.5 1296.49 705.55 1294.55 693.75"/><polygon class="cls-3" points="1229.65 626.25 1227.71 638.05 1215.93 640 1227.71 641.95 1229.65 653.75 1231.6 641.95 1243.38 640 1231.6 638.05 1229.65 626.25"/><polyline class="cls-3" points="1438.82 611.52 1436.27 611.94 1434.33 623.75 1432.39 611.94 1420.6 610 1432.39 608.06 1434.33 596.25 1436.27 608.06 1438.82 608.48"/><polygon class="cls-3" points="1356.95 515 1355.01 526.8 1343.22 528.75 1355.01 530.7 1356.95 542.5 1358.89 530.7 1370.68 528.75 1358.89 526.8 1356.95 515"/><polygon class="cls-3" points="1396.89 433.75 1394.95 445.56 1383.16 447.5 1394.95 449.44 1396.89 461.25 1398.83 449.44 1410.62 447.5 1398.83 445.56 1396.89 433.75"/><polygon class="cls-3" points="980.05 731.25 978.11 743.05 966.32 745 978.11 746.95 980.05 758.75 981.99 746.95 993.78 745 981.99 743.05 980.05 731.25"/><polygon class="cls-3" points="902.67 650 900.73 661.8 888.95 663.75 900.73 665.7 902.67 677.5 904.62 665.7 916.4 663.75 904.62 661.8 902.67 650"/><polygon class="cls-3" points="1007.51 636.25 1005.57 648.05 993.78 650 1005.57 651.95 1007.51 663.75 1009.45 651.95 1021.24 650 1009.45 648.05 1007.51 636.25"/><polygon class="cls-3" points="1118.58 582.5 1116.64 594.3 1104.85 596.25 1116.64 598.2 1118.58 610 1120.52 598.2 1132.31 596.25 1120.52 594.3 1118.58 582.5"/><polygon class="cls-3" points="1290.81 591.25 1292.75 579.45 1304.54 577.5 1292.75 575.55 1290.81 563.75 1288.87 575.55 1277.08 577.5 1288.87 579.45 1290.81 591.25"/><polygon class="cls-3" points="1290.81 492.5 1292.75 480.69 1304.54 478.75 1292.75 476.81 1290.81 465 1288.87 476.81 1277.08 478.75 1288.87 480.69 1290.81 492.5"/><polygon class="cls-3" points="942.61 568.75 940.67 580.55 928.88 582.5 940.67 584.45 942.61 596.25 944.55 584.45 956.34 582.5 944.55 580.55 942.61 568.75"/><polygon class="cls-3" points="1118.58 671.25 1116.64 683.05 1104.85 685 1116.64 686.95 1118.58 698.75 1120.52 686.95 1132.31 685 1120.52 683.05 1118.58 671.25"/><polygon class="cls-3" points="1031.22 528.75 1029.28 540.55 1017.49 542.5 1029.28 544.45 1031.22 556.25 1033.16 544.45 1044.95 542.5 1033.16 540.55 1031.22 528.75"/><rect class="cls-6" x="1065.42" y="872" width="25.96" height="93"/><path class="cls-7" d="M1091.36,1021H931.64a79.95,79.95,0,0,1,79.86-79c.81,0,1.63,0,2.43,0a79.18,79.18,0,0,1,32.63,8.07A80,80,0,0,1,1091.36,1021Z"/><path class="cls-8" d="M1019.49,998q0,1.51-.06,3H859.8q-.06-1.49-.06-3a80,80,0,0,1,79.87-80c.81,0,1.63,0,2.43,0a79.87,79.87,0,0,1,77.45,80Z"/><rect class="cls-6" x="1178.24" y="872" width="25.96" height="93"/><path class="cls-9" d="M1272.48,1021H1115.94a79.87,79.87,0,0,1,156.54,0Z"/><path class="cls-8" d="M1063.41,1021H1210.5a79.84,79.84,0,0,0-147.48-7.06q-1.63,3.45-2.92,7.06Z"/><path class="cls-9" d="M1063.41,1024h92.25a84.82,84.82,0,0,0-19.86-40.37A80.59,80.59,0,0,0,1120.18,970a76.79,76.79,0,0,0-79.61-3.61c-21,11.49-36.59,32.5-41.44,57.59h64.28Z"/><ellipse class="cls-10" cx="1118.83" cy="868" rx="11.48" ry="48"/><ellipse class="cls-10" cx="1153.77" cy="868" rx="11.48" ry="48"/><ellipse class="cls-11" cx="1118.86" cy="872" rx="4.46" ry="26.99"/><ellipse class="cls-11" cx="1153.81" cy="872" rx="4.46" ry="26.99"/><path class="cls-12" d="M1173.26,722.86v0Z"/><path class="cls-13" d="M1172.43,838.73c-.2,0-.35-.1-.35-.23,0-.89.1-6.16.24-14.24v0c0-2.63.09-5.54.14-8.71l-.18,0c-.27,24.58-.46,42-.48,44.08a.36.36,0,0,0,.36.36h18.73V838.73Zm-.11,9.18v1.69h9.16v-1.69Zm-.24,5.56v1.21h9.16v-1.21Zm0-2.9v1.69h11.57v-1.69Z"/><path class="cls-13" d="M1207.4,816.44c0,2.82.09,5.43.13,7.8h0v.16c.14,7.81.22,13,.24,14.1a.2.2,0,0,1-.13.18c.06,5,.11,10.11.17,15.27q0,3,.07,6a.37.37,0,0,0,.31-.36c0-2.79-.24-21.44-.52-47.25l-.32,0C1207.37,813.74,1207.38,815.09,1207.4,816.44Z"/><path class="cls-13" d="M1190.7,596.63s0,0,.08.06,0-.05-.08-.06Z"/><path class="cls-13" d="M1189.68,701.5h-15.92v-2.42h15.92V677.82h-15.44v-2.41h15.44V656.08H1174c-.18,16.89-.41,37.88-.65,59.92h16.31Z"/><path class="cls-13" d="M1206.74,750.07v1h.07v2.42h-.06l0,6.28V760l0,0v2.09h0l.3.25c-.4-36.4-.83-75.74-1.14-104.19.18,16.52.4,36.71.63,57.87C1206.65,720.06,1206.69,737.55,1206.74,750.07Z"/><path class="cls-13" d="M1192.52,598.77l1.13,1.4Z"/><path class="cls-13" d="M1205.34,616.82a3.47,3.47,0,0,0-.15-.36c-.06-.15-.13-.3-.21-.46.08.16.15.31.21.46A3.47,3.47,0,0,1,1205.34,616.82Z"/><path class="cls-13" d="M1205.55,618.87v0c0-.68,0-1.09,0-1.21a2,2,0,0,0,0-.23,2,2,0,0,1,0,.23C1205.54,617.78,1205.54,618.19,1205.55,618.87Z"/><path class="cls-13" d="M1189.68,640.86h-15.19l0-5.56h0v-2.41h0l.12-15.53a.93.93,0,0,1,.09-.22c0-.16,0-.34.07-.54s0-.14.09-.14h.22l.11-.23c1.73-3.85,9.48-13.56,12.92-17.75l1-1.35a1.3,1.3,0,0,1,.23-.18l0,0,0,0a.39.39,0,0,1,.18-.06v-.37a.32.32,0,0,0-.19.07l-.06,0a.1.1,0,0,1,0,.05l-.07.09,0,0-.09.11-.06.06a.76.76,0,0,1-.08.11l-.07.07,0,0h0a1,1,0,0,0-.13.15c-3,3.65-12.12,14.9-14,19.17a3.79,3.79,0,0,0-.31.86,1.16,1.16,0,0,0,0,.34c0,.17-.16,14.46-.39,36h15.63Z"/><path class="cls-13" d="M1200.29,608.82c.36.5.73,1,1.07,1.5C1201,609.82,1200.65,609.32,1200.29,608.82Z"/><path class="cls-13" d="M1203.28,613.13A31,31,0,0,1,1205,616,31,31,0,0,0,1203.28,613.13Z"/><path class="cls-13" d="M1201.36,610.32c.7,1,1.35,1.93,1.92,2.81C1202.71,612.25,1202.06,611.3,1201.36,610.32Z"/><path class="cls-13" d="M1196.54,603.84c.86,1.11,1.75,2.28,2.62,3.45C1198.29,606.12,1197.4,605,1196.54,603.84Z"/><path class="cls-14" d="M1172.31,835.83v-2.41h18.58v-2.18h-18.58v-2.41h18.58v-2.18h-18.58v-2.39c-.13,8.08-.22,13.35-.24,14.24,0,.13.16.23.36.23h18.46v-2.9Z"/><path class="cls-14" d="M1190.89,814.1l-18.43,1.43c0,3.17-.1,6.08-.15,8.71h18.58Z"/><path class="cls-14" d="M1207.53,824.24c0-2.37-.09-5-.13-7.8,0,2.56,0,5.15.08,7.8Z"/><path class="cls-14" d="M1207.51,826.65c0,.72,0,1.45,0,2.18h0v.07c0,3.21.07,6.47.11,9.78a.2.2,0,0,0,.13-.18c0-1.12-.1-6.29-.24-14.1v2.25Z"/><path class="cls-13" d="M1207.53,824.24h0v0Z"/><path class="cls-15" d="M1207.53,824.24h0v0Z"/><path class="cls-13" d="M1172.31,824.24v0Z"/><path class="cls-15" d="M1172.31,824.24v0Z"/><path class="cls-14" d="M1190.89,826.65v-2.41h-18.58v2.41Z"/><path class="cls-15" d="M1190.89,826.65v-2.41h-18.58v2.41Z"/><path class="cls-14" d="M1207.51,826.65h0v-2.41h0Z"/><path class="cls-15" d="M1207.51,826.65h0v-2.41h0Z"/><rect class="cls-13" x="1172.31" y="847.91" width="9.17" height="1.69"/><rect class="cls-15" x="1172.31" y="847.91" width="9.17" height="1.69"/><rect class="cls-13" x="1172.07" y="850.57" width="11.58" height="1.69"/><rect class="cls-15" x="1172.07" y="850.57" width="11.58" height="1.69"/><rect class="cls-13" x="1172.07" y="853.47" width="9.17" height="1.21"/><rect class="cls-15" x="1172.07" y="853.47" width="9.17" height="1.21"/><rect class="cls-14" x="1172.31" y="828.83" width="18.57" height="2.42"/><rect class="cls-15" x="1172.31" y="828.83" width="18.57" height="2.42"/><path class="cls-14" d="M1207.53,828.83h0v0Z"/><path class="cls-15" d="M1207.53,828.83h0v0Z"/><rect class="cls-14" x="1172.31" y="833.42" width="18.57" height="2.42"/><rect class="cls-15" x="1172.31" y="833.42" width="18.57" height="2.42"/><path class="cls-13" d="M1207.35,812.41h0c0,1.39,0,2.73.07,4C1207.38,815.09,1207.37,813.74,1207.35,812.41Z"/><path class="cls-16" d="M1207.35,812.41h0c0,1.39,0,2.73.07,4C1207.38,815.09,1207.37,813.74,1207.35,812.41Z"/><path class="cls-13" d="M1207.64,838.68a.48.48,0,0,1-.22.05h-16.53V860h17q0-3-.07-6C1207.75,848.79,1207.7,843.69,1207.64,838.68Z"/><path class="cls-16" d="M1207.64,838.68a.48.48,0,0,1-.22.05h-16.53V860h17q0-3-.07-6C1207.75,848.79,1207.7,843.69,1207.64,838.68Z"/><path class="cls-13" d="M1206.79,760v0Z"/><path class="cls-16" d="M1206.79,760v0Z"/><path class="cls-13" d="M1206.81,762.07Z"/><path class="cls-16" d="M1206.81,762.07Z"/><polygon class="cls-13" points="1197.17 798.87 1201.03 798.87 1201.04 798.75 1197.19 798.75 1197.17 798.87"/><polygon class="cls-16" points="1197.17 798.87 1201.03 798.87 1201.04 798.75 1197.19 798.75 1197.17 798.87"/><path class="cls-14" d="M1207.53,831.24h-16.64v2.18h16.64v2.41h-16.64v2.9h16.53a.48.48,0,0,0,.22-.05c0-3.31-.07-6.57-.11-9.78Z"/><path class="cls-16" d="M1207.53,831.24h-16.64v2.18h16.64v2.41h-16.64v2.9h16.53a.48.48,0,0,0,.22-.05c0-3.31-.07-6.57-.11-9.78Z"/><path class="cls-14" d="M1190.89,828.83h16.64c0-.73,0-1.46,0-2.18h-16.62Z"/><path class="cls-16" d="M1190.89,828.83h16.64c0-.73,0-1.46,0-2.18h-16.62Z"/><path class="cls-14" d="M1195.74,813.73l-4.85.37v10.14h16.59c0-2.65-.06-5.24-.08-7.8,0-1.3-.05-2.64-.07-4l-8.21.83,1.91-14.37h-3.86Z"/><path class="cls-16" d="M1195.74,813.73l-4.85.37v10.14h16.59c0-2.65-.06-5.24-.08-7.8,0-1.3-.05-2.64-.07-4l-8.21.83,1.91-14.37h-3.86Z"/><path class="cls-14" d="M1207.51,826.65l0-2.41h-16.59v2.41Z"/><path class="cls-15" d="M1207.51,826.65l0-2.41h-16.59v2.41Z"/><path class="cls-16" d="M1207.51,826.65l0-2.41h-16.59v2.41Z"/><rect class="cls-14" x="1190.89" y="828.83" width="16.64" height="2.42"/><rect class="cls-15" x="1190.89" y="828.83" width="16.64" height="2.42"/><rect class="cls-16" x="1190.89" y="828.83" width="16.64" height="2.42"/><rect class="cls-14" x="1190.89" y="833.42" width="16.64" height="2.42"/><rect class="cls-15" x="1190.89" y="833.42" width="16.64" height="2.42"/><rect class="cls-16" x="1190.89" y="833.42" width="16.64" height="2.42"/><path class="cls-14" d="M1173.26,722.86v.54a11.85,11.85,0,0,0,.57,2.74h15.85V716H1173.3c0,.31,0,2.58,0,6,0-.06,0-.12,0-.17Z"/><path class="cls-14" d="M1174.8,728.56a34,34,0,0,0,3.67,5.92l11.21,10.09v-16Z"/><path class="cls-14" d="M1206.74,751v0Z"/><path class="cls-14" d="M1206.78,759.94h0v-.22l0-6.28h0C1206.76,756,1206.77,758.26,1206.78,759.94Z"/><polygon class="cls-13" points="1206.81 753.45 1206.81 751.03 1206.74 751.03 1206.75 753.45 1206.81 753.45"/><polygon class="cls-15" points="1206.81 753.45 1206.81 751.03 1206.74 751.03 1206.75 753.45 1206.81 753.45"/><path class="cls-14" d="M1206.75,753.45h0V751h0C1206.74,751.86,1206.75,752.67,1206.75,753.45Z"/><path class="cls-15" d="M1206.75,753.45h0V751h0C1206.74,751.86,1206.75,752.67,1206.75,753.45Z"/><path class="cls-14" d="M1189.68,603.41h-5.3l3.78-4.93c-3.44,4.19-11.19,13.9-12.92,17.75l-.11.23h11.42s0,.16,0,.25v.95c0,.1,0,.43,0,1,0,.13,0,.24-.1.24h-11.63s-.09-.11-.09-.24V617.3a.88.88,0,0,1,0-.16.93.93,0,0,0-.09.22l-.12,15.53h15.14Z"/><polygon class="cls-14" points="1174.53 635.3 1174.48 640.86 1189.68 640.86 1189.68 635.3 1174.53 635.3"/><path class="cls-14" d="M1189.68,596.81a.39.39,0,0,0-.18.06l0,0,0,0a1.12,1.12,0,0,1,.25-.11Z"/><path class="cls-17" d="M1174.73,617.35v1.28c0,.13,0,.24.09.24h11.63c.1,0,.1-.11.1-.24,0-.54,0-.87,0-1v-.95c0-.09,0-.25,0-.25h-11.64s-.07,0-.09.14-.06.38-.07.54a.88.88,0,0,0,0,.16Z"/><polygon class="cls-18" points="1173.04 726.14 1173.04 728.56 1173.18 728.56 1173.22 726.14 1173.04 726.14"/><polygon class="cls-15" points="1173.04 726.14 1173.04 728.56 1173.18 728.56 1173.22 726.14 1173.04 726.14"/><path class="cls-14" d="M1189.68,728.56v-2.42h-15.85a18.79,18.79,0,0,0,1,2.42Z"/><path class="cls-15" d="M1189.68,728.56v-2.42h-15.85a18.79,18.79,0,0,0,1,2.42Z"/><polygon class="cls-19" points="1189.68 632.88 1174.55 632.88 1174.48 632.88 1174.48 635.3 1174.53 635.3 1189.68 635.3 1189.68 632.88"/><path class="cls-20" d="M1205.55,619.36c0,.35,0,.76,0,1.21C1205.56,620.12,1205.56,619.71,1205.55,619.36Z"/><path class="cls-21" d="M1205.55,619.36c0,.35,0,.76,0,1.21C1205.56,620.12,1205.56,619.71,1205.55,619.36Z"/><path class="cls-22" d="M1205.57,621.29c.07,6.1.21,19.44.4,36.84C1205.78,640.73,1205.64,627.39,1205.57,621.29Z"/><path class="cls-21" d="M1205.57,621.29c.07,6.1.21,19.44.4,36.84C1205.78,640.73,1205.64,627.39,1205.57,621.29Z"/><path class="cls-23" d="M1191.62,597.67l.9,1.1Z"/><path class="cls-21" d="M1191.62,597.67l.9,1.1Z"/><path class="cls-24" d="M1189.71,596.44h0Z"/><path class="cls-21" d="M1189.71,596.44h0Z"/><path class="cls-25" d="M1195.18,602.11l1.36,1.73Z"/><path class="cls-21" d="M1195.18,602.11l1.36,1.73Z"/><path class="cls-26" d="M1191.62,597.67l-.77-.93-.07,0,.07,0Z"/><path class="cls-21" d="M1191.62,597.67l-.77-.93-.07,0,.07,0Z"/><path class="cls-27" d="M1189.71,596.44Z"/><path class="cls-21" d="M1189.71,596.44Z"/><path class="cls-28" d="M1193.65,600.17l1,1.26Z"/><path class="cls-21" d="M1193.65,600.17l1,1.26Z"/><path class="cls-13" d="M1189.72,596.8h.12a1,1,0,0,1,.49.1l.3.06h0a.4.4,0,0,1,.15.1c1.35,1.61,6.66,8.14,10.4,13.46h0l1.93,2.65-.14.06a23.78,23.78,0,0,1,1.7,3,3.28,3.28,0,0,1,.34,1.18c0,.11.26.07.27.74,0,.35.09,8.33.16,14.74h.08v2.41h0c0,3,0,5.26,0,5.56h-15.92v12.8h15.92v2.42h-15.92v19.33h16.16v2.41h-16.16v21.26h16.41v2.42h-16.41V716h16.89l.17,34.07c0-12.52-.09-30-.14-34.07-.23-21.16-.45-41.35-.63-57.87-.19-17.4-.33-30.74-.4-36.84v-.72c0-.45,0-.86,0-1.21v-.49c0-.68,0-1.09,0-1.21a2,2,0,0,0,0-.23,3.1,3.1,0,0,0-.18-.61,3.47,3.47,0,0,0-.15-.36c-.06-.15-.13-.3-.21-.46a31,31,0,0,0-1.7-2.87c-.57-.88-1.22-1.83-1.92-2.81-.34-.5-.71-1-1.07-1.5l-1.13-1.53c-.87-1.17-1.76-2.34-2.62-3.45l-1.36-1.73c-.18-.23-.35-.46-.53-.68l-1-1.26-1.13-1.4-.9-1.1-.77-.93-.07,0s0-.05-.08-.06h0l-.87-.18h-.1v.37Z"/><path class="cls-21" d="M1189.72,596.8h.12a1,1,0,0,1,.49.1l.3.06h0a.4.4,0,0,1,.15.1c1.35,1.61,6.66,8.14,10.4,13.46h0l1.93,2.65-.14.06a23.78,23.78,0,0,1,1.7,3,3.28,3.28,0,0,1,.34,1.18c0,.11.26.07.27.74,0,.35.09,8.33.16,14.74h.08v2.41h0c0,3,0,5.26,0,5.56h-15.92v12.8h15.92v2.42h-15.92v19.33h16.16v2.41h-16.16v21.26h16.41v2.42h-16.41V716h16.89l.17,34.07c0-12.52-.09-30-.14-34.07-.23-21.16-.45-41.35-.63-57.87-.19-17.4-.33-30.74-.4-36.84v-.72c0-.45,0-.86,0-1.21v-.49c0-.68,0-1.09,0-1.21a2,2,0,0,0,0-.23,3.1,3.1,0,0,0-.18-.61,3.47,3.47,0,0,0-.15-.36c-.06-.15-.13-.3-.21-.46a31,31,0,0,0-1.7-2.87c-.57-.88-1.22-1.83-1.92-2.81-.34-.5-.71-1-1.07-1.5l-1.13-1.53c-.87-1.17-1.76-2.34-2.62-3.45l-1.36-1.73c-.18-.23-.35-.46-.53-.68l-1-1.26-1.13-1.4-.9-1.1-.77-.93-.07,0s0-.05-.08-.06h0l-.87-.18h-.1v.37Z"/><path class="cls-14" d="M1206.37,726.14h.2v2.42h-16.89v16l7.19,6.46h9.87v-1l-.17-34.07h-16.89v10.14h16.69Z"/><path class="cls-21" d="M1206.37,726.14h.2v2.42h-16.89v16l7.19,6.46h9.87v-1l-.17-34.07h-16.89v10.14h16.69Z"/><path class="cls-14" d="M1206.75,753.45h-7.19l7.22,6.49C1206.77,758.26,1206.76,756,1206.75,753.45Z"/><path class="cls-21" d="M1206.75,753.45h-7.19l7.22,6.49C1206.77,758.26,1206.76,756,1206.75,753.45Z"/><path class="cls-14" d="M1206.75,753.45c0-.78,0-1.59,0-2.42h-9.87l2.69,2.42Z"/><path class="cls-15" d="M1206.75,753.45c0-.78,0-1.59,0-2.42h-9.87l2.69,2.42Z"/><path class="cls-21" d="M1206.75,753.45c0-.78,0-1.59,0-2.42h-9.87l2.69,2.42Z"/><path class="cls-14" d="M1195.71,603.41h-6v29.48h15.84c-.07-6.41-.16-14.39-.16-14.74,0-.67-.27-.63-.27-.74a3.28,3.28,0,0,0-.34-1.18,23.78,23.78,0,0,0-1.7-3l-4.2,1.64.48,13-2.65,1.21V612.23l4.55-1.68c-3.74-5.32-9-11.85-10.4-13.46a.4.4,0,0,0-.15-.1h0l-.3-.06a1.43,1.43,0,0,1,.47.34A62.57,62.57,0,0,1,1195.71,603.41Z"/><path class="cls-21" d="M1195.71,603.41h-6v29.48h15.84c-.07-6.41-.16-14.39-.16-14.74,0-.67-.27-.63-.27-.74a3.28,3.28,0,0,0-.34-1.18,23.78,23.78,0,0,0-1.7-3l-4.2,1.64.48,13-2.65,1.21V612.23l4.55-1.68c-3.74-5.32-9-11.85-10.4-13.46a.4.4,0,0,0-.15-.1h0l-.3-.06a1.43,1.43,0,0,1,.47.34A62.57,62.57,0,0,1,1195.71,603.41Z"/><path class="cls-14" d="M1189.84,596.82h-.16v0Z"/><path class="cls-21" d="M1189.84,596.82h-.16v0Z"/><path class="cls-14" d="M1205.55,635.3h-15.87v5.56h15.92C1205.6,640.56,1205.58,638.29,1205.55,635.3Z"/><path class="cls-21" d="M1205.55,635.3h-15.87v5.56h15.92C1205.6,640.56,1205.58,638.29,1205.55,635.3Z"/><polygon class="cls-17" points="1196.68 629.14 1199.33 627.93 1198.85 614.89 1203.05 613.25 1203.19 613.19 1201.26 610.54 1201.23 610.55 1196.68 612.23 1196.68 629.14"/><polygon class="cls-21" points="1196.68 629.14 1199.33 627.93 1198.85 614.89 1203.05 613.25 1203.19 613.19 1201.26 610.54 1201.23 610.55 1196.68 612.23 1196.68 629.14"/><polygon class="cls-14" points="1205.22 728.56 1206.41 728.56 1206.57 728.56 1206.57 726.14 1206.37 726.14 1206.05 726.14 1189.68 726.14 1189.68 728.56 1205.22 728.56"/><polygon class="cls-15" points="1205.22 728.56 1206.41 728.56 1206.57 728.56 1206.57 726.14 1206.37 726.14 1206.05 726.14 1189.68 726.14 1189.68 728.56 1205.22 728.56"/><polygon class="cls-21" points="1205.22 728.56 1206.41 728.56 1206.57 728.56 1206.57 726.14 1206.37 726.14 1206.05 726.14 1189.68 726.14 1189.68 728.56 1205.22 728.56"/><polygon class="cls-19" points="1189.68 635.3 1205.55 635.3 1205.6 635.3 1205.6 632.88 1205.52 632.88 1189.68 632.88 1189.68 635.3"/><polygon class="cls-21" points="1189.68 635.3 1205.55 635.3 1205.6 635.3 1205.6 632.88 1205.52 632.88 1189.68 632.88 1189.68 635.3"/><rect class="cls-13" x="1174.24" y="675.41" width="15.44" height="2.42"/><rect class="cls-29" x="1174.24" y="675.41" width="15.44" height="2.42"/><rect class="cls-13" x="1189.68" y="675.41" width="16.16" height="2.42"/><rect class="cls-21" x="1189.68" y="675.41" width="16.16" height="2.42"/><rect class="cls-29" x="1189.68" y="675.41" width="16.16" height="2.42"/><path class="cls-30" d="M1174,653.66v2.42h0c0-.82,0-1.62,0-2.42Z"/><path class="cls-29" d="M1174,653.66v2.42h0c0-.82,0-1.62,0-2.42Z"/><path class="cls-13" d="M1189.68,653.66h-15.63c0,.8,0,1.6,0,2.42h15.66Z"/><path class="cls-29" d="M1189.68,653.66h-15.63c0,.8,0,1.6,0,2.42h15.66Z"/><rect class="cls-13" x="1189.68" y="653.66" width="15.92" height="2.42"/><rect class="cls-21" x="1189.68" y="653.66" width="15.92" height="2.42"/><rect class="cls-29" x="1189.68" y="653.66" width="15.92" height="2.42"/><rect class="cls-13" x="1173.76" y="699.08" width="15.92" height="2.42"/><rect class="cls-29" x="1173.76" y="699.08" width="15.92" height="2.42"/><rect class="cls-13" x="1189.68" y="699.08" width="16.4" height="2.42"/><rect class="cls-21" x="1189.68" y="699.08" width="16.4" height="2.42"/><rect class="cls-29" x="1189.68" y="699.08" width="16.4" height="2.42"/><path class="cls-13" d="M1189.68,603.41h6a62.57,62.57,0,0,0-4.91-6.15,1.43,1.43,0,0,0-.47-.34,1,1,0,0,0-.49-.1l-.16,0a1.12,1.12,0,0,0-.25.11,1.3,1.3,0,0,0-.23.18l-1,1.35-3.78,4.93Z"/><polygon class="cls-14" points="1175.21 859.99 1172.41 867 1172.07 867.85 1169.9 873.28 1190.89 873.28 1190.89 859.99 1175.21 859.99"/><polygon class="cls-13" points="1177.02 873.4 1169.9 886.69 1190.89 886.69 1190.89 873.4 1177.02 873.4"/><polygon class="cls-13" points="1190.89 873.4 1190.89 886.69 1211.88 886.69 1203.55 873.4 1190.89 873.4"/><polygon class="cls-31" points="1190.89 873.4 1190.89 886.69 1211.88 886.69 1203.55 873.4 1190.89 873.4"/><path class="cls-14" d="M1204.39,860h-13.5v13.29h21Zm3.87,8.1-.34-.85H1196.2v1.69h12.54Zm-1.21-2.66-.34-.85H1195v1.69h12.54Z"/><path class="cls-32" d="M1204.39,860h-13.5v13.29h21Zm3.87,8.1-.34-.85H1196.2v1.69h12.54Zm-1.21-2.66-.34-.85H1195v1.69h12.54Z"/><polygon class="cls-17" points="1196.19 868.93 1208.74 868.93 1208.26 868.09 1207.92 867.24 1196.19 867.24 1196.19 868.93"/><polygon class="cls-32" points="1196.19 868.93 1208.74 868.93 1208.26 868.09 1207.92 867.24 1196.19 867.24 1196.19 868.93"/><polygon class="cls-17" points="1207.05 865.43 1206.71 864.58 1194.99 864.58 1194.99 866.27 1207.53 866.27 1207.05 865.43"/><polygon class="cls-32" points="1207.05 865.43 1206.71 864.58 1194.99 864.58 1194.99 866.27 1207.53 866.27 1207.05 865.43"/><path class="cls-33" d="M1167.73,713.82h-.24l-.74-2.08c.42,1.72.84,3.4,1.27,5v-1.82l-.29-1.17Z"/><path class="cls-13" d="M1150.25,636.63c-.46-8.18-1.2-17.65-2.35-27.42h-48V606h47.56c-2.42-19.2-6.48-39.12-13.28-52.32-.17-.32-.33-.64-.51-1a5.9,5.9,0,0,1,.45.63l-.16-.91-.23-.09s-34.24,14.25-34.24,53.64V723.89c.23-.68.45-1.39.67-2.12l-.26-.22s1-6.32,2.55-15H1100v-3.26h3.13c.12-.71.24-1.42.37-2.15s.26-1.45.39-2.19.31-1.75.47-2.64.32-1.81.49-2.72.33-1.83.5-2.74c.35-1.88.7-3.76,1-5.62l.09-.51c.64-3.41,1.29-6.74,1.91-9.82H1100v-3.26H1109c0-.12,0-.24.08-.36.23-1.07.44-2.1.65-3.07a1.22,1.22,0,0,1,.06-.26c.3-1.34.58-2.58.85-3.69.11-.45.22-.89.33-1.31s.21-.81.31-1.18.24-.85.36-1.22a13.8,13.8,0,0,1,.66-1.78,75.3,75.3,0,0,1,8.1-18.9H1100v-3.26h22.49c.23-.38.48-.75.72-1.11l.21-.31c.3-.45.6-.9.9-1.33.09-.12.18-.24.26-.37.28-.4.56-.8.84-1.18l.29-.38c.26-.37.53-.73.79-1.08l.3-.4.75-1,.3-.38.71-.91.26-.33.71-.86.26-.31.65-.78.25-.29.61-.71a2.62,2.62,0,0,0,.22-.25l.57-.63.19-.22.51-.56.18-.19.44-.48.16-.16.36-.39.15-.14.27-.29.14-.13.1-.1,0,0,0-.05v-.23s0-.12,0,0c.08-.08.24,0,.24,0l0,.14c1.42.77,8.27,4.94,15.36,16.43Zm-23.55-75.44-.17.09h0l-.29.15-.79.45-.17.1c-.46.27-1,.62-1.64,1l-1.06.75c-.55.4-1.14.85-1.75,1.36l-.69.59c-.24.2-.47.41-.71.63s-.61.56-.92.86l-.52.52q-.86.85-1.68,1.83-.29.31-.54.66a33.08,33.08,0,0,0-2.13,2.91q-.24.35-.45.72a.55.55,0,0,0-.09.14c-.16.26-.32.53-.47.8s-.4.71-.58,1.07c-.07.13-.14.25-.2.38s-.26.53-.38.79l-.36.8q-.18.39-.33.78a.87.87,0,0,0-.07.17c-.18.46-.35.92-.51,1.39-.11.3-.21.61-.3.92s-.28.92-.39,1.4-.24,1-.34,1.45c-.06.27-.11.54-.16.82a30.51,30.51,0,0,0-.47,3.81c0,.22,0,.44,0,.67,0,.69,0,1.41,0,2.13,0,0,0-.12.1-.36a1.24,1.24,0,0,1,0-.16.89.89,0,0,1,.06-.2.83.83,0,0,1,0-.15c.14-.52.36-1.25.67-2.16,0-.14.09-.28.14-.42.28-.85.63-1.83,1.06-2.91l.24-.61c.15-.39.32-.79.5-1.2l.38-.89.37-.82c.12-.28.25-.57.39-.85s.36-.77.56-1.16c.51-1,1.06-2.11,1.68-3.2.2-.35.4-.71.61-1.06l.56-1c.41-.68.84-1.35,1.29-2l.73-1.07c.19-.29.4-.58.6-.86s.24-.34.37-.51.44-.6.67-.89.49-.64.75-1,.36-.46.56-.69.27-.33.42-.5c.49-.59,1-1.17,1.54-1.74.21-.24.43-.47.66-.7s.61-.63.93-.93c.79-.78,1.61-1.52,2.46-2.24Z"/><path class="cls-33" d="M1149.54,606h18.19v3.26h-17.82c.87,8.11,1.46,17.22,1.63,27.42h16.19v3.26h-16.08c4.3,7.53,8.55,17.83,11.61,31.77h4.47v3.26h-3.8a204.71,204.71,0,0,1,3.44,28.39h.36v3.26h-.21c.1,2.34.17,4.73.21,7.19l.29,1.17V606c0-37.53-31.09-52.24-34-53.55l.17.91C1136.29,556.47,1145.4,571.76,1149.54,606Z"/><path class="cls-29" d="M1149.54,606h18.19v3.26h-17.82c.87,8.11,1.46,17.22,1.63,27.42h16.19v3.26h-16.08c4.3,7.53,8.55,17.83,11.61,31.77h4.47v3.26h-3.8a204.71,204.71,0,0,1,3.44,28.39h.36v3.26h-.21c.1,2.34.17,4.73.21,7.19l.29,1.17V606c0-37.53-31.09-52.24-34-53.55l.17.91C1136.29,556.47,1145.4,571.76,1149.54,606Z"/><path class="cls-29" d="M1122.44,636.63H1100v3.26h20.48l.51-.87h0c.37-.61.74-1.21,1.11-1.79a.36.36,0,0,1,.07-.1C1122.22,637,1122.33,636.8,1122.44,636.63Z"/><path class="cls-29" d="M1151.65,639.89h16.08v-3.26h-16.19c0,1,0,2.07,0,3.12C1151.6,639.8,1151.63,639.85,1151.65,639.89Z"/><path class="cls-29" d="M1100,671.66v3.26h8.4c.23-1.12.45-2.21.67-3.26Z"/><path class="cls-29" d="M1167.73,674.92v-3.26h-4.47c.23,1.07.45,2.16.67,3.26Z"/><path class="cls-29" d="M1100,703.31v3.26h2.55c.18-1.05.37-2.14.57-3.26Z"/><path class="cls-34" d="M1167.73,706.57v-3.26h-.36c.05,1.08.11,2.16.15,3.26Z"/><path class="cls-13" d="M1096.33,817.29h-.11q.06,3.19.11,6h0v.17c.13,7.8.22,13,.24,14.09a.2.2,0,0,1-.13.18q.07,7.51.17,15.28,0,3,.06,6a.36.36,0,0,0,.32-.36c0-2.63-.22-19.49-.48-43.18l-.2,0Z"/><path class="cls-13" d="M1061.22,837.76c-.2,0-.35-.1-.35-.23,0-.89.1-6.16.24-14.24v0c.06-3.23.12-6.91.19-10.94l-.2,0c-.29,25.78-.49,44.19-.51,46.35a.37.37,0,0,0,.36.37h18.73V837.76Zm-.11,9.19v1.69h9.17V847Zm-.24,5.55v1.21H1070V852.5Zm0-2.9v1.69h11.58V849.6Z"/><path class="cls-13" d="M1087.38,605.55c.77,1,1.53,2.05,2.25,3.05C1088.91,607.6,1088.15,606.57,1087.38,605.55Z"/><path class="cls-13" d="M1094.35,617.91v0c0-.69,0-1.1,0-1.21a2.6,2.6,0,0,0-.2-.85,2.6,2.6,0,0,1,.2.85C1094.34,616.81,1094.34,617.22,1094.35,617.91Z"/><path class="cls-13" d="M1061.9,762.34l-.06,0v-2.89h0c0-1.65,0-4.09,0-7h0v-2.42h.06c0-6.92.09-15.68.13-22.71-.13,11.95-.26,24-.39,35.8l.47-.39A.76.76,0,0,1,1061.9,762.34Z"/><path class="cls-13" d="M1095.6,733h0c-.29-25.93-.57-51.55-.79-72.12.17,15.8.37,34.58.59,54.2C1095.46,721,1095.53,726.94,1095.6,733Z"/><path class="cls-13" d="M1086.23,604l1.15,1.52Z"/><path class="cls-13" d="M1078.48,639.89h-15.2l0-5.56h0v-2.41h.06l.12-15.53a2.12,2.12,0,0,1,.15-.35l.16-.4c0-.07.08-.1.14-.13a1.93,1.93,0,0,0,.13-.24c1.73-3.85,9.48-13.57,12.92-17.76l1-1.35a1.09,1.09,0,0,1,.22-.17l0,0,0-.05a.4.4,0,0,1,.18-.07v-.37a.39.39,0,0,0-.2.08l0,.05,0,0-.07.09,0,0-.09.11-.06.06-.09.11-.06.08,0,0h0l-.12.15c-3,3.65-12.12,14.91-14,19.17a5.51,5.51,0,0,0-.31.87,1.48,1.48,0,0,0,0,.34c0,.16-.16,14.45-.39,36h15.63Z"/><path class="cls-13" d="M1095.36,733.26l.23-.3-.23.21Z"/><path class="cls-13" d="M1082.94,599.82l1,1.32Z"/><path class="cls-13" d="M1081.36,597.85l1.58,2Z"/><path class="cls-13" d="M1079.5,595.67l.09.06-.09-.06h0l0,0,0,0Z"/><path class="cls-13" d="M1091.17,610.8c.48.7.93,1.38,1.32,2C1092.1,612.18,1091.65,611.5,1091.17,610.8Z"/><path class="cls-13" d="M1093.51,614.53q.29.53.48,1Q1093.79,615.06,1093.51,614.53Z"/><path class="cls-13" d="M1078.48,700.53h-15.92v-2.41h15.92V676.86H1063v-2.42h15.44V655.11h-15.66c-.18,16.89-.41,37.88-.66,59.92h16.32Z"/><path class="cls-13" d="M1089.63,608.6l1,1.48Z"/><path class="cls-13" d="M1079.45,595.65l-.88-.17h0Z"/><path class="cls-14" d="M1068.52,799.3l1.76-.19,1.93,16.67-10.86-1.69v-1.76h0c-.07,4-.13,7.71-.19,10.94h18.58v-7.78l-6.28-.68-1.44-15.7.6-.05v-.19h-4.1Z"/><path class="cls-14" d="M1096.28,823.27h0q0-2.79-.11-6h0C1096.23,819.25,1096.26,821.25,1096.28,823.27Z"/><path class="cls-14" d="M1096.31,825.68c0,.73,0,1.45,0,2.18h0v.08c0,3.21.07,6.47.11,9.77a.2.2,0,0,0,.13-.18c0-1.12-.11-6.29-.24-14.09v2.24Z"/><path class="cls-14" d="M1061.11,834.87v-2.42h18.58v-2.17h-18.58v-2.42h18.58v-2.18h-18.58v-2.39c-.13,8.08-.22,13.35-.24,14.24,0,.13.16.23.35.23h18.47v-2.89Z"/><polygon class="cls-19" points="1072.21 815.78 1070.28 799.11 1068.52 799.3 1070.37 813.24 1061.35 812.33 1061.35 814.09 1072.21 815.78"/><path class="cls-13" d="M1096.33,823.27h0v0Z"/><path class="cls-15" d="M1096.33,823.27h0v0Z"/><path class="cls-13" d="M1061.11,823.27v0Z"/><path class="cls-15" d="M1061.11,823.27v0Z"/><path class="cls-14" d="M1096.31,825.68h0v-2.41h0Z"/><path class="cls-15" d="M1096.31,825.68h0v-2.41h0Z"/><path class="cls-14" d="M1079.69,825.68v-2.41h-18.58v2.41Z"/><path class="cls-15" d="M1079.69,825.68v-2.41h-18.58v2.41Z"/><rect class="cls-13" x="1061.11" y="846.95" width="9.17" height="1.69"/><rect class="cls-15" x="1061.11" y="846.95" width="9.17" height="1.69"/><rect class="cls-13" x="1060.87" y="849.6" width="11.58" height="1.69"/><rect class="cls-15" x="1060.87" y="849.6" width="11.58" height="1.69"/><rect class="cls-13" x="1060.87" y="852.5" width="9.17" height="1.21"/><rect class="cls-15" x="1060.87" y="852.5" width="9.17" height="1.21"/><rect class="cls-14" x="1061.11" y="827.86" width="18.57" height="2.42"/><rect class="cls-15" x="1061.11" y="827.86" width="18.57" height="2.42"/><path class="cls-14" d="M1096.33,827.86h0v0Z"/><path class="cls-15" d="M1096.33,827.86h0v0Z"/><rect class="cls-14" x="1061.11" y="832.45" width="18.57" height="2.42"/><rect class="cls-15" x="1061.11" y="832.45" width="18.57" height="2.42"/><path class="cls-35" d="M1068.52,799.3l-.06-.43h-43.09l6.67,10.51,29.06,2.93.2,0h0l9,.91Zm-.41-.19H1025.9l1,1.45s23.4.48,41.49.24Z"/><path class="cls-35" d="M1201,798.75v.12l-1.92,14.37,8.22-.83h0l.32,0,29.78-3,6-9.43.77-1.2Zm.22.36L1201,802c18.09.24,42-2.18,42-2.18l.48-.72Z"/><polygon class="cls-19" points="1073.41 814.81 1079.69 815.49 1079.69 814.17 1073.99 813.73 1072.57 799.06 1071.97 799.11 1073.41 814.81"/><path class="cls-19" d="M1096.21,817.28h.12l0-1.83h-.12C1096.2,816.06,1096.21,816.66,1096.21,817.28Z"/><path class="cls-13" d="M1096.44,837.71a.51.51,0,0,1-.22,0h-16.53V859h17q0-3-.06-6Q1096.52,845.24,1096.44,837.71Z"/><path class="cls-16" d="M1096.44,837.71a.51.51,0,0,1-.22,0h-16.53V859h17q0-3-.06-6Q1096.52,845.24,1096.44,837.71Z"/><path class="cls-14" d="M1079.69,827.86h16.64c0-.73,0-1.45,0-2.18h-16.62Z"/><path class="cls-16" d="M1079.69,827.86h16.64c0-.73,0-1.45,0-2.18h-16.62Z"/><path class="cls-14" d="M1096.33,830.28h-16.64v2.17h16.64v2.42h-16.64v2.89h16.53a.51.51,0,0,0,.22,0c0-3.3-.07-6.56-.11-9.77Z"/><path class="cls-16" d="M1096.33,830.28h-16.64v2.17h16.64v2.42h-16.64v2.89h16.53a.51.51,0,0,0,.22,0c0-3.3-.07-6.56-.11-9.77Z"/><path class="cls-14" d="M1096.21,817.28l-16.52-1.79v7.78h16.59C1096.26,821.25,1096.23,819.25,1096.21,817.28Z"/><path class="cls-16" d="M1096.21,817.28l-16.52-1.79v7.78h16.59C1096.26,821.25,1096.23,819.25,1096.21,817.28Z"/><path class="cls-14" d="M1096.31,825.68l0-2.41h-16.59v2.41Z"/><path class="cls-15" d="M1096.31,825.68l0-2.41h-16.59v2.41Z"/><path class="cls-16" d="M1096.31,825.68l0-2.41h-16.59v2.41Z"/><path class="cls-14" d="M1079.69,830.28h16.64v-2.42h-16.64Z"/><path class="cls-15" d="M1079.69,830.28h16.64v-2.42h-16.64Z"/><path class="cls-16" d="M1079.69,830.28h16.64v-2.42h-16.64Z"/><rect class="cls-14" x="1079.69" y="832.45" width="16.64" height="2.42"/><rect class="cls-15" x="1079.69" y="832.45" width="16.64" height="2.42"/><rect class="cls-16" x="1079.69" y="832.45" width="16.64" height="2.42"/><path class="cls-19" d="M1096.21,817.28c0-.62,0-1.22,0-1.83l-16.5-1.28v1.32Z"/><path class="cls-16" d="M1096.21,817.28c0-.62,0-1.22,0-1.83l-16.5-1.28v1.32Z"/><path class="cls-35" d="M1109.88,800c-18,1.26-36.71.59-36.71.59l-.24-1.45,37.45.24-.06-.48h-37.76v.19l1.42,14.67,5.7.44,16.5,1.28h.12l.2,0,6.67.51C1102,808.69,1107.61,802.24,1109.88,800Z"/><path class="cls-35" d="M1109.2,802.88c.79-1.2,1.31-1.84,1.31-1.84v-.58l-.06-.52Z"/><path class="cls-36" d="M1109.2,802.88l1.25-2.94h0l-.57,0c-2.27,2.27-7.91,8.72-6.7,16,0,.14,0,.27.08.41A47.52,47.52,0,0,1,1109.2,802.88Z"/><path class="cls-36" d="M1110.38,799.35l-37.45-.24.24,1.45s18.7.67,36.71-.59l.57,0C1110.43,799.74,1110.4,799.55,1110.38,799.35Z"/><path class="cls-36" d="M1068.35,800.8l-.24-1.69h-42.22l1,1.45S1050.26,801,1068.35,800.8Z"/><path class="cls-35" d="M1166.13,816l.15,0s-.22-.57-.58-1.45C1165.85,815,1166,815.53,1166.13,816Z"/><path class="cls-35" d="M1161.13,804.23a11.54,11.54,0,0,0-2.15-3.34V801A29.92,29.92,0,0,1,1161.13,804.23Z"/><path class="cls-35" d="M1190.89,814.1l4.85-.37,1.43-14.86,0-.12H1178l18.94.36-.48,2.41s-18-.23-36.3-1.62c2.32,2.37,7.46,8.58,6.14,16.11l6-.46.18,0Z"/><path class="cls-35" d="M1159.06,798.75v.12l.09.08,0-.2Z"/><path class="cls-36" d="M1160.14,799.9l-.85-.07-.15-.88-.09-.08c0,.2,0,.39-.07.59v1.43a11.54,11.54,0,0,1,2.15,3.34,47.81,47.81,0,0,1,4.57,10.33c.36.88.57,1.43.58,1.45h0C1167.6,808.48,1162.46,802.27,1160.14,799.9Z"/><path class="cls-36" d="M1159.11,798.75l0,.2.15.88.85.07c18.28,1.39,36.3,1.62,36.3,1.62l.48-2.41-18.94-.36Z"/><path class="cls-14" d="M1072.41,750.06l6.07-5.41V727.59h-16.16v-2.41h16.16V715H1062.1c0,.48,0,5.61-.07,12.32,0,7-.09,15.79-.13,22.71Z"/><path class="cls-14" d="M1062.11,762.76c1.73-1.42,3.47-2.86,5.19-4.32l-5.4,3.9A.76.76,0,0,0,1062.11,762.76Z"/><path class="cls-14" d="M1061.88,752.48c0,2.91,0,5.35,0,7l7.85-7Z"/><path class="cls-13" d="M1061.85,759.48h0v2.89l.06,0a2.29,2.29,0,0,1-.06-.61C1061.84,761.62,1061.84,760.81,1061.85,759.48Z"/><path class="cls-15" d="M1061.85,759.48h0v2.89l.06,0a2.29,2.29,0,0,1-.06-.61C1061.84,761.62,1061.84,760.81,1061.85,759.48Z"/><path class="cls-13" d="M1095.29,733.23v.13a.61.61,0,0,0,.07-.1v-.09Z"/><path class="cls-15" d="M1095.29,733.23v.13a.61.61,0,0,0,.07-.1v-.09Z"/><path class="cls-14" d="M1078.53,748.78c8.27-7.27,14.76-13.3,16.31-14.9.15-.16.3-.34.45-.52v-.13Z"/><path class="cls-15" d="M1078.53,748.78c8.27-7.27,14.76-13.3,16.31-14.9.15-.16.3-.34.45-.52v-.13Z"/><path class="cls-14" d="M1061.85,759.48c0,1.33,0,2.14,0,2.25a2.29,2.29,0,0,0,.06.61l5.4-3.9c2.38-2,4.73-4,7-6h-4.59Z"/><path class="cls-15" d="M1061.85,759.48c0,1.33,0,2.14,0,2.25a2.29,2.29,0,0,0,.06.61l5.4-3.9c2.38-2,4.73-4,7-6h-4.59Z"/><path class="cls-14" d="M1072.41,750.06h4.66l1.41-1.24v-4.17Z"/><path class="cls-15" d="M1072.41,750.06h4.66l1.41-1.24v-4.17Z"/><path class="cls-37" d="M1173.27,722a7,7,0,0,0,0,1.37v-.48C1173.27,722.55,1173.27,722.26,1173.27,722Z"/><path class="cls-15" d="M1173.27,722a7,7,0,0,0,0,1.37v-.48C1173.27,722.55,1173.27,722.26,1173.27,722Z"/><path class="cls-38" d="M1173.26,723.4v-.06l0,2.8h0C1173.25,725.18,1173.26,724.26,1173.26,723.4Z"/><path class="cls-15" d="M1173.26,723.4v-.06l0,2.8h0C1173.25,725.18,1173.26,724.26,1173.26,723.4Z"/><path class="cls-39" d="M1173.23,728.56h0l0,2.84.06.11Z"/><path class="cls-15" d="M1173.23,728.56h0l0,2.84.06.11Z"/><path class="cls-13" d="M1206.81,760l0,0c0,.64,0,1.34,0,2.11Z"/><path class="cls-15" d="M1206.81,760l0,0c0,.64,0,1.34,0,2.11Z"/><path class="cls-13" d="M1173.23,728.56l0,3v0c0-1,0-2,0-3Z"/><path class="cls-15" d="M1173.23,728.56l0,3v0c0-1,0-2,0-3Z"/><path class="cls-13" d="M1206.79,760h0v2.11h0C1206.8,761.29,1206.79,760.59,1206.79,760Z"/><path class="cls-16" d="M1206.79,760h0v2.11h0C1206.8,761.29,1206.79,760.59,1206.79,760Z"/><path class="cls-15" d="M1206.79,760h0v2.11h0C1206.8,761.29,1206.79,760.59,1206.79,760Z"/><path class="cls-14" d="M1173.28,721.8c0,.05,0,.11,0,.17,0,.29,0,.58,0,.89Z"/><path class="cls-15" d="M1173.28,721.8c0,.05,0,.11,0,.17,0,.29,0,.58,0,.89Z"/><path class="cls-14" d="M1173.83,726.14a11.85,11.85,0,0,1-.57-2.74c0,.86,0,1.78,0,2.74Z"/><path class="cls-15" d="M1173.83,726.14a11.85,11.85,0,0,1-.57-2.74c0,.86,0,1.78,0,2.74Z"/><path class="cls-14" d="M1178.47,734.48a34,34,0,0,1-3.67-5.92h-1.57c0,1,0,2,0,3a10.53,10.53,0,0,0,1.56,2.21c1.46,1.51,7.32,7,14.91,13.68v-2.86Z"/><path class="cls-15" d="M1178.47,734.48a34,34,0,0,1-3.67-5.92h-1.57c0,1,0,2,0,3a10.53,10.53,0,0,0,1.56,2.21c1.46,1.51,7.32,7,14.91,13.68v-2.86Z"/><path class="cls-14" d="M1206.78,759.94c0,.87,0,1.57,0,2.12h0V760Z"/><path class="cls-15" d="M1206.78,759.94c0,.87,0,1.57,0,2.12h0V760Z"/><path class="cls-40" d="M1173.23,728.31c0-.74,0-1.46,0-2.17h0l0,2.42h0Z"/><path class="cls-15" d="M1173.23,728.31c0-.74,0-1.46,0-2.17h0l0,2.42h0Z"/><path class="cls-15" d="M1173.23,728.31c0-.74,0-1.46,0-2.17h0l0,2.42h0Z"/><path class="cls-13" d="M1173.23,728.31v.25h0Z"/><path class="cls-15" d="M1173.23,728.31v.25h0Z"/><path class="cls-15" d="M1173.23,728.31v.25h0Z"/><path class="cls-14" d="M1174.8,728.56a18.79,18.79,0,0,1-1-2.42h-.58c0,.71,0,1.43,0,2.17v.25Z"/><path class="cls-15" d="M1174.8,728.56a18.79,18.79,0,0,1-1-2.42h-.58c0,.71,0,1.43,0,2.17v.25Z"/><path class="cls-15" d="M1174.8,728.56a18.79,18.79,0,0,1-1-2.42h-.58c0,.71,0,1.43,0,2.17v.25Z"/><path class="cls-14" d="M1199.56,753.45h-3c3.31,2.85,6.77,5.77,10.22,8.61,0-.55,0-1.25,0-2.12Z"/><path class="cls-21" d="M1199.56,753.45h-3c3.31,2.85,6.77,5.77,10.22,8.61,0-.55,0-1.25,0-2.12Z"/><path class="cls-15" d="M1199.56,753.45h-3c3.31,2.85,6.77,5.77,10.22,8.61,0-.55,0-1.25,0-2.12Z"/><path class="cls-14" d="M1189.68,744.57v2.86l4.11,3.6h3.08Z"/><path class="cls-21" d="M1189.68,744.57v2.86l4.11,3.6h3.08Z"/><path class="cls-15" d="M1189.68,744.57v2.86l4.11,3.6h3.08Z"/><path class="cls-14" d="M1196.87,751h-3.08c.91.8,1.84,1.6,2.79,2.42h3Z"/><path class="cls-15" d="M1196.87,751h-3.08c.91.8,1.84,1.6,2.79,2.42h3Z"/><path class="cls-21" d="M1196.87,751h-3.08c.91.8,1.84,1.6,2.79,2.42h3Z"/><path class="cls-15" d="M1196.87,751h-3.08c.91.8,1.84,1.6,2.79,2.42h3Z"/><path class="cls-13" d="M1061.84,750.06v2.42h0c0-.78,0-1.58,0-2.42Z"/><path class="cls-15" d="M1061.84,750.06v2.42h0c0-.78,0-1.58,0-2.42Z"/><path class="cls-14" d="M1072.41,750.06H1061.9c0,.84,0,1.64,0,2.42h7.82Z"/><path class="cls-15" d="M1072.41,750.06H1061.9c0,.84,0,1.64,0,2.42h7.82Z"/><path class="cls-14" d="M1069.7,752.48h4.59l2.78-2.42h-4.66Z"/><path class="cls-15" d="M1069.7,752.48h4.59l2.78-2.42h-4.66Z"/><path class="cls-15" d="M1069.7,752.48h4.59l2.78-2.42h-4.66Z"/><path class="cls-29" d="M1108.35,674.92c-1.76,8.74-3.71,19.44-5.28,28.39-.2,1.12-.39,2.21-.57,3.26-1.51,8.66-2.55,15-2.55,15l.26.22c4.19-13.88,8-35.73,10.31-49.8a53.19,53.19,0,0,1,1.81-13.18c-.78,1.59-2,6.48-3.31,12.87C1108.8,672.71,1108.58,673.8,1108.35,674.92Z"/><path class="cls-34" d="M1135.4,621.71a92.13,92.13,0,0,1,13.28,17.22l-.07.05h0c.66,1.09,1.31,2.22,1.94,3.38,0-.81-.07-1.63-.12-2.47s-.08-1.5-.12-2.27c-7.08-11.49-13.94-15.66-15.35-16.43v.09Z"/><path class="cls-29" d="M1151.58,639.89c0,1.45,0,2.91,0,4.4,4,7.81,7.2,17.06,7.4,26.89,1.77,11.06,4.58,27.28,7.77,40.56l.74,2.08h.24v-.06c0-2.46-.11-4.85-.21-7.19,0-1.1-.1-2.18-.15-3.26a204.71,204.71,0,0,0-3.44-28.39c-.22-1.1-.44-2.19-.67-3.26-3.06-13.94-7.31-24.24-11.61-31.77,0,0-.05-.09-.07-.14Z"/><path class="cls-35" d="M1110.45,799.94l.06.52v-.53h-.06Z"/><path class="cls-41" d="M1110.45,799.94l.06.52v-.53h-.06Z"/><path class="cls-35" d="M1110.38,799.35h.13v-.48h-.19Z"/><path class="cls-41" d="M1110.38,799.35h.13v-.48h-.19Z"/><path class="cls-36" d="M1110.38,799.35c0,.2,0,.39.07.58h.06v-.58Z"/><path class="cls-41" d="M1110.38,799.35c0,.2,0,.39.07.58h.06v-.58Z"/><path class="cls-35" d="M1159,671.18c0,.32,0,.64,0,1v.64c1.61,13.16,7.15,66.52.06,126h87.07c0-17.64-9.17-17-10.37-17.16-4.66-.54-16.56-9.33-28.65-19.27l-.3-.25h0c-3.45-2.84-6.91-5.76-10.22-8.61-.95-.82-1.88-1.62-2.79-2.42l-4.11-3.6c-7.59-6.71-13.45-12.17-14.91-13.68a10.53,10.53,0,0,1-1.56-2.21v0l-.06-.11c-1.73-3.17-3.46-8.4-5.12-14.65-.43-1.61-.85-3.29-1.27-5C1163.56,698.46,1160.75,682.24,1159,671.18Z"/><path class="cls-35" d="M1067.38,798.87h43.13v-.51c-6.87-58.07-1.71-110.26,0-124.71v-1.38c0-.1,0-.2,0-.3-2.26,14.07-6.12,35.92-10.31,49.8-.22.73-.44,1.44-.66,2.12a37.22,37.22,0,0,1-4,9.06h0l-.23.3a.61.61,0,0,1-.07.1c-.15.18-.3.36-.45.52-1.55,1.6-8,7.63-16.31,14.9l0,.05h0l-1.41,1.24-2.78,2.42c-2.26,2-4.61,4-7,6-1.72,1.46-3.46,2.9-5.19,4.32l-.47.39c-1.83,1.5-3.66,3-5.45,4.37-9.73,7.69-18.5,13.74-22.34,14.19-1.2.14-10.37-.48-10.37,17.16h43.9Z"/><path class="cls-29" d="M1134.17,553.31c-.27-.4-.42-.6-.45-.63l.51,1c6.8,13.2,10.86,33.12,13.28,52.32h2C1145.4,571.76,1136.29,556.47,1134.17,553.31Z"/><path class="cls-29" d="M1150.55,642.36c.35.63.69,1.27,1,1.93,0-1.49,0-2.95,0-4.4v-.14c0-1,0-2.09,0-3.12-.17-10.2-.76-19.31-1.63-27.42h-2c1.15,9.77,1.88,19.24,2.34,27.42l.06,1c0,.77.08,1.53.12,2.27S1150.51,641.55,1150.55,642.36Z"/><path class="cls-36" d="M1159,799.45h0c0-.2,0-.39.07-.59Z"/><path class="cls-41" d="M1159,799.45h0c0-.2,0-.39.07-.59Z"/><path class="cls-35" d="M1159,672.79c0,4.61,0,10.86,0,18.16v108.5l.07-.58v-.12C1166.15,739.31,1160.61,686,1159,672.79Z"/><path class="cls-41" d="M1159,672.79c0,4.61,0,10.86,0,18.16v108.5l.07-.58v-.12C1166.15,739.31,1160.61,686,1159,672.79Z"/><path class="cls-35" d="M1110.51,798.36V673.65C1108.8,688.1,1103.64,740.29,1110.51,798.36Z"/><path class="cls-41" d="M1110.51,798.36V673.65C1108.8,688.1,1103.64,740.29,1110.51,798.36Z"/><path class="cls-35" d="M1129.74,626.7q.33-.41.66-.78Q1130.07,626.29,1129.74,626.7Z"/><path class="cls-35" d="M1127.79,629.11l.72-.91Z"/><path class="cls-35" d="M1128.78,627.87c.24-.29.47-.59.7-.86C1129.25,627.28,1129,627.58,1128.78,627.87Z"/><path class="cls-35" d="M1124.54,633.51c.28-.4.55-.8.83-1.18C1125.09,632.71,1124.82,633.11,1124.54,633.51Z"/><path class="cls-35" d="M1126.75,630.47l.75-1Z"/><path class="cls-35" d="M1123.37,635.21c.3-.45.6-.9.9-1.33C1124,634.31,1123.67,634.76,1123.37,635.21Z"/><path class="cls-35" d="M1125.65,632l.8-1.08Z"/><path class="cls-35" d="M1132.92,623.07l.44-.48Z"/><path class="cls-35" d="M1132.23,623.82l.51-.56Z"/><path class="cls-35" d="M1131.47,624.67l.56-.63Z"/><path class="cls-35" d="M1130.64,625.63l.61-.71Z"/><path class="cls-35" d="M1133.51,622.43l.37-.39Z"/><path class="cls-35" d="M1134.62,621.05h0v.23l0,.05-.14.15.19-.2Z"/><path class="cls-35" d="M1134,621.9l.28-.29Z"/><path class="cls-35" d="M1123.16,635.52l-.72,1.11c-.11.17-.22.33-.32.5C1122.46,636.58,1122.81,636,1123.16,635.52Z"/><path class="cls-35" d="M1166.13,816c-.13-.5-.28-1-.43-1.47a47.81,47.81,0,0,0-4.57-10.33A31.93,31.93,0,0,0,1159,801V691c-.09,37.68-.36,102.92-.38,110.09,0,0,8.41,10.39,8.89,27.54h-32.34l-.39-172.74h-5.93l-6.39,6.4v5.07h-4.33l.36-5.67,10-10h6.28l0-6.64h-6.85v-3.39h6.84V641H1128l-1.45-1.93-5.61,0-.51.87a75.3,75.3,0,0,0-8.1,18.9c-.13.49-.25,1-.37,1.49s-.23,1-.33,1.5q-.09.39-.15.78a1.55,1.55,0,0,0,0,.21c-.06.28-.11.56-.16.85-.09.51-.17,1-.24,1.54s-.12.83-.16,1.24c0,.25-.06.5-.09.75s0,.51-.07.76v0c0,.37-.07.73-.09,1.11v0c0,.22,0,.43,0,.65v.08c0,.32,0,.64,0,1a1.21,1.21,0,0,0,0,.19v.1c0,.3,0,.61,0,.91,0,.1,0,.2,0,.3V801s-.52.64-1.3,1.84a47.42,47.42,0,0,0-6,13.52,49.59,49.59,0,0,0-1.65,12.67h66.29A49.26,49.26,0,0,0,1166.13,816ZM1128,666.47v4.95h3.85v-4.95Z"/><path class="cls-14" d="M1127.11,829.07h-16.86s-11.43,23.31-5.4,29.35h27.66C1138.54,852.38,1127.11,829.07,1127.11,829.07Zm2.75,18.17c0-.21,0-.43-.09-.63s-.13-.68-.21-1a.3.3,0,0,0,0-.1,2.5,2.5,0,0,0-.07-.26c-.07-.26-.14-.51-.22-.74s-.07-.23-.11-.34c-.19-.54-.38-1-.55-1.38l-.16-.34-.06-.15a4.54,4.54,0,0,0-.23-.44c0,.16.11.32.15.48s.11.43.15.64.08.34.11.51a12.24,12.24,0,0,1,.22,2c0,.22,0,.43,0,.64,0,.56,0,1.11-.08,1.66,0,.16,0,.32,0,.47,0,.38-.1.76-.16,1.12,0,.13,0,.26-.07.38s-.07.45-.12.67-.08.38-.13.56a.19.19,0,0,1,0,.07c-.06.27-.13.54-.2.79s-.07.25-.11.37c-.22.78-.45,1.44-.63,1.92l-.13.33c-.09.22-.16.38-.19.47l0,.09.27-.22.25-.22a5.5,5.5,0,0,0,.54-.54l.24-.28a7.6,7.6,0,0,0,.84-1.25l.13-.26c.06-.12.12-.24.17-.37s.1-.24.14-.36l.14-.38v0h0A9.5,9.5,0,0,0,1129.86,847.24Z"/><path class="cls-14" d="M1162.06,829.07h-16.85s-11.43,23.31-5.4,29.35h27.65C1173.49,852.38,1162.06,829.07,1162.06,829.07Zm-13.82,7.49a14.48,14.48,0,0,0-2.29,7.64c.76-5.1,5.58-10.52,5.58-10.52A8.94,8.94,0,0,0,1148.24,836.56Z"/><path class="cls-42" d="M1134.93,621.29l.47.42-.43-.43v-.09l0-.14Z"/><path class="cls-42" d="M1158.6,801c0-7.17.29-72.41.38-110.09,0-7.3,0-13.55,0-18.16v-.64c0-.33,0-.65,0-1-.2-9.83-3.39-19.08-7.4-26.89-.34-.66-.68-1.3-1-1.93-.63-1.16-1.28-2.29-1.94-3.38l-.06,0-5.61,0-1.21,1.93h-7v.6h7.13V645h-7.12l0,6.64h5.79l10,10,.36,5.67h-4.34v-5.07l-6.39-6.4h-5.41l.39,172.74h32.34C1167,811.43,1158.6,801,1158.6,801Zm-21.33-134.57v5.07h3.86v-5.07Z"/><polygon class="cls-14" points="1146.56 662.24 1146.56 667.31 1150.9 667.31 1150.54 661.64 1140.53 651.61 1134.75 651.61 1134.5 651.61 1128.48 651.61 1118.47 661.64 1118.11 667.31 1122.45 667.31 1122.45 662.24 1128.84 655.84 1134.5 655.84 1134.76 655.84 1140.17 655.84 1146.56 662.24"/><rect class="cls-14" x="1127.99" y="666.47" width="3.86" height="4.95"/><rect class="cls-14" x="1137.28" y="666.47" width="3.86" height="5.07"/><path class="cls-14" d="M1135.4,621.71l-.14-.13-.34-.29v-.24s-.16-.08-.24,0c0-.12,0,0,0,0v.23l0,.05,0,0-.1.1-.14.13-.27.29-.15.14-.36.39-.16.16-.44.48-.18.19-.51.56-.19.22-.57.63a2.62,2.62,0,0,1-.22.25l-.61.71-.25.29-.65.78-.26.31-.71.86-.26.33-.71.91-.3.38-.75,1-.3.4c-.26.35-.53.71-.79,1.08l-.29.38c-.28.38-.56.78-.84,1.18-.08.13-.17.25-.26.37-.3.43-.6.88-.9,1.33l-.21.31c-.24.36-.49.73-.72,1.11h0l-.32.5,0,.1c-.38.58-.75,1.18-1.12,1.79l5.61,0L1128,641h13.73l1.21-1.93,5.61,0,.06,0,.06-.05A91.79,91.79,0,0,0,1135.4,621.71Zm-6.09,12.62v3.87h2.43v-3.87Zm4.1,0v3.87h2.43v-3.87Zm4.34,0v3.87h2.43v-3.87Z"/><rect class="cls-35" x="1129.31" y="634.33" width="2.43" height="3.87"/><rect class="cls-35" x="1133.41" y="634.33" width="2.43" height="3.87"/><rect class="cls-35" x="1137.75" y="634.33" width="2.43" height="3.87"/><path class="cls-14" d="M1127.88,641.58V645h14v-3.39Zm1.81,1v1.21h1.91v-1.21Zm4.1,0v1.21h1.91v-1.21Zm4.34,0v1.21H1140v-1.21Z"/><rect class="cls-35" x="1129.69" y="642.55" width="1.91" height="1.21"/><rect class="cls-35" x="1133.79" y="642.55" width="1.91" height="1.21"/><rect class="cls-35" x="1138.13" y="642.55" width="1.91" height="1.21"/><path class="cls-36" d="M1243,799.83l.48-.72h-42.21L1201,802C1219.11,802.25,1243,799.83,1243,799.83Z"/><path class="cls-43" d="M1128.11,841.82c2.09,5.87-1.27,13.21-1.27,13.21C1133,850.25,1128.11,841.82,1128.11,841.82Z"/><path class="cls-43" d="M1148.24,836.56a14.44,14.44,0,0,0-2.3,7.64c.77-5.1,5.59-10.52,5.59-10.52A8.94,8.94,0,0,0,1148.24,836.56Z"/><polygon class="cls-29" points="1167.73 609.21 1167.73 605.95 1149.54 605.95 1147.51 605.95 1143.74 605.95 1099.95 605.95 1099.95 609.21 1144.33 609.21 1147.91 609.21 1149.91 609.21 1167.73 609.21"/><path class="cls-33" d="M1126.82,561.13s-18.67,8.75-18.39,30.25C1108.43,591.38,1112.94,572.84,1126.82,561.13Z"/><path class="cls-29" d="M1126.82,561.13s-18.67,8.75-18.39,30.25C1108.43,591.38,1112.94,572.84,1126.82,561.13Z"/><path class="cls-14" d="M1078.48,615.49v-13h-5.31l3.79-4.93c-3.44,4.19-11.19,13.91-12.92,17.76a1.93,1.93,0,0,1-.13.24l.08,0Z"/><polygon class="cls-14" points="1063.32 634.34 1063.28 639.89 1078.48 639.89 1078.48 634.34 1063.32 634.34"/><path class="cls-14" d="M1078.48,617.91h-14.71a.25.25,0,0,1-.25-.25v-1.27s0,0,0-.06,0-.19.08-.29a2.12,2.12,0,0,0-.15.35l-.12,15.53h15.14Z"/><path class="cls-14" d="M1078.48,595.84a.4.4,0,0,0-.18.07l0,.05,0,0a1,1,0,0,1,.26-.11Z"/><path class="cls-17" d="M1063.52,616.39v1.27a.25.25,0,0,0,.25.25h14.71v-2.42H1064l-.08,0c-.06,0-.12.06-.14.13l-.16.4c0,.1-.06.2-.08.29S1063.52,616.37,1063.52,616.39Z"/><rect class="cls-14" x="1062.32" y="725.18" width="16.16" height="2.42"/><rect class="cls-15" x="1062.32" y="725.18" width="16.16" height="2.42"/><polygon class="cls-19" points="1078.48 631.92 1063.34 631.92 1063.28 631.92 1063.28 634.34 1063.32 634.34 1078.48 634.34 1078.48 631.92"/><path class="cls-44" d="M1078.51,595.47Z"/><path class="cls-21" d="M1078.51,595.47Z"/><path class="cls-45" d="M1081.36,597.85c-.76-.94-1.36-1.66-1.71-2.08l-.06,0,.06,0C1080,596.19,1080.6,596.91,1081.36,597.85Z"/><path class="cls-21" d="M1081.36,597.85c-.76-.94-1.36-1.66-1.71-2.08l-.06,0,.06,0C1080,596.19,1080.6,596.91,1081.36,597.85Z"/><path class="cls-46" d="M1094.81,660.83c-.21-19.19-.37-34-.44-40.51,0-.75,0-1.4,0-1.93,0,.53,0,1.18,0,1.93C1094.44,626.85,1094.6,641.64,1094.81,660.83Z"/><path class="cls-21" d="M1094.81,660.83c-.21-19.19-.37-34-.44-40.51,0-.75,0-1.4,0-1.93,0,.53,0,1.18,0,1.93C1094.44,626.85,1094.6,641.64,1094.81,660.83Z"/><path class="cls-13" d="M1078.51,595.83h.13a.93.93,0,0,1,.48.1l.31.06,0,0h0a.29.29,0,0,1,.15.1c1.93,2.3,11.94,14.66,13.92,19.14l.09.22h0a.25.25,0,0,1,.22.15,3.08,3.08,0,0,1,.28,1.06v.36s0,.07,0,.12c0,.35.09,8.33.16,14.74h.08v2.41h-.05c0,3,.05,5.26.05,5.56h-15.92V652.7h15.92v2.41h-15.92v19.33h16.16v2.42h-16.16v21.26h16.4v2.41h-16.4V715h16.89l0,10.15h0a1.85,1.85,0,0,0,0-.23v-1.71a6.53,6.53,0,0,1,0,1.71v.23h0v2.41h0v5.58l.23-.21h0c-.07-6-.14-12-.2-17.92-.22-19.62-.42-38.4-.59-54.2-.21-19.19-.37-34-.44-40.51,0-.75,0-1.4,0-1.93v-.48c0-.69,0-1.1,0-1.21a2.6,2.6,0,0,0-.2-.85q-.08-.17-.15-.36-.2-.43-.48-1c-.28-.52-.62-1.1-1-1.73s-.84-1.3-1.32-2l-.49-.72-1-1.48c-.72-1-1.48-2-2.25-3.05l-1.15-1.52c-.77-1-1.53-2-2.25-2.89l-1-1.32-1.58-2c-.76-.94-1.36-1.66-1.71-2.08l-.06,0-.09-.06h0l0,0-.88-.17h-.09v.37Z"/><path class="cls-21" d="M1078.51,595.83h.13a.93.93,0,0,1,.48.1l.31.06,0,0h0a.29.29,0,0,1,.15.1c1.93,2.3,11.94,14.66,13.92,19.14l.09.22h0a.25.25,0,0,1,.22.15,3.08,3.08,0,0,1,.28,1.06v.36s0,.07,0,.12c0,.35.09,8.33.16,14.74h.08v2.41h-.05c0,3,.05,5.26.05,5.56h-15.92V652.7h15.92v2.41h-15.92v19.33h16.16v2.42h-16.16v21.26h16.4v2.41h-16.4V715h16.89l0,10.15h0a1.85,1.85,0,0,0,0-.23v-1.71a6.53,6.53,0,0,1,0,1.71v.23h0v2.41h0v5.58l.23-.21h0c-.07-6-.14-12-.2-17.92-.22-19.62-.42-38.4-.59-54.2-.21-19.19-.37-34-.44-40.51,0-.75,0-1.4,0-1.93v-.48c0-.69,0-1.1,0-1.21a2.6,2.6,0,0,0-.2-.85q-.08-.17-.15-.36-.2-.43-.48-1c-.28-.52-.62-1.1-1-1.73s-.84-1.3-1.32-2l-.49-.72-1-1.48c-.72-1-1.48-2-2.25-3.05l-1.15-1.52c-.77-1-1.53-2-2.25-2.89l-1-1.32-1.58-2c-.76-.94-1.36-1.66-1.71-2.08l-.06,0-.09-.06h0l0,0-.88-.17h-.09v.37Z"/><polygon class="cls-14" points="1095.17 725.18 1095.33 725.18 1095.37 715.03 1078.48 715.03 1078.48 725.18 1094.85 725.18 1095.17 725.18"/><polygon class="cls-21" points="1095.17 725.18 1095.33 725.18 1095.37 715.03 1078.48 715.03 1078.48 725.18 1094.85 725.18 1095.17 725.18"/><path class="cls-14" d="M1089.9,734.48a22.81,22.81,0,0,0,4.77-6.89h-16.19v17.06Z"/><path class="cls-21" d="M1089.9,734.48a22.81,22.81,0,0,0,4.77-6.89h-16.19v17.06Z"/><path class="cls-13" d="M1095.36,723.24V725A6.53,6.53,0,0,0,1095.36,723.24Z"/><path class="cls-15" d="M1095.36,723.24V725A6.53,6.53,0,0,0,1095.36,723.24Z"/><path class="cls-21" d="M1095.36,723.24V725A6.53,6.53,0,0,0,1095.36,723.24Z"/><path class="cls-13" d="M1095.36,725a1.85,1.85,0,0,1,0,.23h0Z"/><path class="cls-15" d="M1095.36,725a1.85,1.85,0,0,1,0,.23h0Z"/><path class="cls-21" d="M1095.36,725a1.85,1.85,0,0,1,0,.23h0Z"/><polygon class="cls-13" points="1095.29 733.23 1095.37 733.17 1095.37 727.59 1095.32 727.59 1095.29 733.23"/><polygon class="cls-15" points="1095.29 733.23 1095.37 733.17 1095.37 727.59 1095.32 727.59 1095.29 733.23"/><polygon class="cls-21" points="1095.29 733.23 1095.37 733.17 1095.37 727.59 1095.32 727.59 1095.29 733.23"/><path class="cls-14" d="M1095.29,733.23l0-5.64h-.65a22.81,22.81,0,0,1-4.77,6.89l-11.42,10.17v4.17l0,0Z"/><path class="cls-15" d="M1095.29,733.23l0-5.64h-.65a22.81,22.81,0,0,1-4.77,6.89l-11.42,10.17v4.17l0,0Z"/><path class="cls-21" d="M1095.29,733.23l0-5.64h-.65a22.81,22.81,0,0,1-4.77,6.89l-11.42,10.17v4.17l0,0Z"/><path class="cls-35" d="M1095.6,733Z"/><path class="cls-21" d="M1095.6,733Z"/><path class="cls-35" d="M1078.48,748.83l0-.05,0,0Z"/><path class="cls-21" d="M1078.48,748.83l0-.05,0,0Z"/><path class="cls-14" d="M1094.35,634.33h-15.87v5.56h15.92C1094.4,639.59,1094.38,637.33,1094.35,634.33Z"/><path class="cls-21" d="M1094.35,634.33h-15.87v5.56h15.92C1094.4,639.59,1094.38,637.33,1094.35,634.33Z"/><path class="cls-14" d="M1084.51,602.44h-6v13h15.16l-.09-.22c-2-4.48-12-16.84-13.92-19.14a.29.29,0,0,0-.15-.1h0l0,0-.31-.06a1.51,1.51,0,0,1,.48.34A63.85,63.85,0,0,1,1084.51,602.44Z"/><path class="cls-21" d="M1084.51,602.44h-6v13h15.16l-.09-.22c-2-4.48-12-16.84-13.92-19.14a.29.29,0,0,0-.15-.1h0l0,0-.31-.06a1.51,1.51,0,0,1,.48.34A63.85,63.85,0,0,1,1084.51,602.44Z"/><path class="cls-14" d="M1078.64,595.85h-.16v0A.9.9,0,0,1,1078.64,595.85Z"/><path class="cls-21" d="M1078.64,595.85h-.16v0A.9.9,0,0,1,1078.64,595.85Z"/><path class="cls-14" d="M1093.92,617.91h-15.44v14h15.84c-.07-6.41-.16-14.39-.16-14.74,0,0,0-.08,0-.12,0,.16,0,.35,0,.6A.25.25,0,0,1,1093.92,617.91Z"/><path class="cls-21" d="M1093.92,617.91h-15.44v14h15.84c-.07-6.41-.16-14.39-.16-14.74,0,0,0-.08,0-.12,0,.16,0,.35,0,.6A.25.25,0,0,1,1093.92,617.91Z"/><path class="cls-17" d="M1078.48,615.49v2.42h15.44a.25.25,0,0,0,.24-.25c0-.25,0-.44,0-.6v-.36a3.08,3.08,0,0,0-.28-1.06.25.25,0,0,0-.22-.15h-15.17Z"/><path class="cls-21" d="M1078.48,615.49v2.42h15.44a.25.25,0,0,0,.24-.25c0-.25,0-.44,0-.6v-.36a3.08,3.08,0,0,0-.28-1.06.25.25,0,0,0-.22-.15h-15.17Z"/><rect class="cls-13" x="1095.36" y="725.18" height="2.42"/><rect class="cls-15" x="1095.36" y="725.18" height="2.42"/><rect class="cls-21" x="1095.36" y="725.18" height="2.42"/><path class="cls-13" d="M1095.35,725.18h0v.14Z"/><path class="cls-15" d="M1095.35,725.18h0v.14Z"/><path class="cls-21" d="M1095.35,725.18h0v.14Z"/><path class="cls-14" d="M1094.67,727.59a10.28,10.28,0,0,0,.65-2.27v-.14h-16.85v2.41h16.19Z"/><path class="cls-15" d="M1094.67,727.59a10.28,10.28,0,0,0,.65-2.27v-.14h-16.85v2.41h16.19Z"/><path class="cls-21" d="M1094.67,727.59a10.28,10.28,0,0,0,.65-2.27v-.14h-16.85v2.41h16.19Z"/><path class="cls-13" d="M1095.32,727.59h0v-2.41h0l0,.14Z"/><path class="cls-15" d="M1095.32,727.59h0v-2.41h0l0,.14Z"/><path class="cls-15" d="M1095.32,727.59h0v-2.41h0l0,.14Z"/><path class="cls-21" d="M1095.32,727.59h0v-2.41h0l0,.14Z"/><path class="cls-14" d="M1094.67,727.59h.65v-2.27A10.28,10.28,0,0,1,1094.67,727.59Z"/><path class="cls-15" d="M1094.67,727.59h.65v-2.27A10.28,10.28,0,0,1,1094.67,727.59Z"/><path class="cls-15" d="M1094.67,727.59h.65v-2.27A10.28,10.28,0,0,1,1094.67,727.59Z"/><path class="cls-21" d="M1094.67,727.59h.65v-2.27A10.28,10.28,0,0,1,1094.67,727.59Z"/><polygon class="cls-19" points="1078.48 634.34 1094.35 634.34 1094.4 634.34 1094.4 631.92 1094.32 631.92 1078.48 631.92 1078.48 634.34"/><polygon class="cls-21" points="1078.48 634.34 1094.35 634.34 1094.4 634.34 1094.4 631.92 1094.32 631.92 1078.48 631.92 1078.48 634.34"/><rect class="cls-13" x="1063.04" y="674.44" width="15.44" height="2.42"/><rect class="cls-29" x="1063.04" y="674.44" width="15.44" height="2.42"/><rect class="cls-13" x="1078.48" y="674.44" width="16.16" height="2.42"/><rect class="cls-21" x="1078.48" y="674.44" width="16.16" height="2.42"/><rect class="cls-29" x="1078.48" y="674.44" width="16.16" height="2.42"/><path class="cls-47" d="M1062.8,652.7v2.41h0c0-.81,0-1.62,0-2.41Z"/><path class="cls-29" d="M1062.8,652.7v2.41h0c0-.81,0-1.62,0-2.41Z"/><path class="cls-13" d="M1078.48,652.7h-15.63c0,.79,0,1.6,0,2.41h15.66Z"/><path class="cls-29" d="M1078.48,652.7h-15.63c0,.79,0,1.6,0,2.41h15.66Z"/><rect class="cls-13" x="1078.48" y="652.7" width="15.92" height="2.42"/><rect class="cls-21" x="1078.48" y="652.7" width="15.92" height="2.42"/><rect class="cls-29" x="1078.48" y="652.7" width="15.92" height="2.42"/><rect class="cls-13" x="1062.56" y="698.12" width="15.92" height="2.42"/><rect class="cls-29" x="1062.56" y="698.12" width="15.92" height="2.42"/><rect class="cls-13" x="1078.48" y="698.12" width="16.4" height="2.42"/><rect class="cls-21" x="1078.48" y="698.12" width="16.4" height="2.42"/><rect class="cls-29" x="1078.48" y="698.12" width="16.4" height="2.42"/><path class="cls-13" d="M1078.48,602.44h6a63.85,63.85,0,0,0-4.91-6.15,1.51,1.51,0,0,0-.48-.34.93.93,0,0,0-.48-.1.9.9,0,0,0-.16,0,1,1,0,0,0-.26.11,1.09,1.09,0,0,0-.22.17l-1,1.35-3.79,4.93Z"/><polygon class="cls-14" points="1064.01 859.03 1061.21 866.03 1060.87 866.88 1058.7 872.31 1079.69 872.31 1079.69 859.03 1064.01 859.03"/><polygon class="cls-13" points="1065.82 872.43 1058.7 885.72 1079.69 885.72 1079.69 872.43 1065.82 872.43"/><polygon class="cls-13" points="1079.69 872.43 1079.69 885.72 1100.67 885.72 1092.35 872.43 1079.69 872.43"/><polygon class="cls-31" points="1079.69 872.43 1079.69 885.72 1100.67 885.72 1092.35 872.43 1079.69 872.43"/><path class="cls-14" d="M1093.19,859h-13.51v13.28h21Zm3.86,8.09-.33-.85H1085V868h12.54Zm-1.2-2.66-.34-.84h-11.72v1.69h12.54Z"/><path class="cls-32" d="M1093.19,859h-13.51v13.28h21Zm3.86,8.09-.33-.85H1085V868h12.54Zm-1.2-2.66-.34-.84h-11.72v1.69h12.54Z"/><polygon class="cls-17" points="1084.99 867.97 1097.54 867.97 1097.05 867.12 1096.72 866.27 1084.99 866.27 1084.99 867.97"/><polygon class="cls-32" points="1084.99 867.97 1097.54 867.97 1097.05 867.12 1096.72 866.27 1084.99 866.27 1084.99 867.97"/><polygon class="cls-17" points="1095.85 864.46 1095.51 863.62 1083.79 863.62 1083.79 865.31 1096.33 865.31 1095.85 864.46"/><polygon class="cls-32" points="1095.85 864.46 1095.51 863.62 1083.79 863.62 1083.79 865.31 1096.33 865.31 1095.85 864.46"/><path class="cls-7" d="M1371.93,1018q0,1.51-.06,3H1212.24q-.06-1.49-.06-3a80,80,0,0,1,79.88-80c.8,0,1.62,0,2.42,0a79.87,79.87,0,0,1,77.45,80Z"/><path class="cls-7" d="M1439.48,1008H1314.39a80.13,80.13,0,0,1,7.94-64,80.25,80.25,0,0,1,7.78-10.85,80.56,80.56,0,0,1,21.74-17.9h0a79.87,79.87,0,0,1,53.37-8.92c2.27.41,4.51.92,6.7,1.53h0a77.33,77.33,0,0,1,14.47,5.52,78.41,78.41,0,0,1,12.41,7.66v86.54Z"/><path class="cls-9" d="M1410.74,1024H1256.33a85.73,85.73,0,0,1-1.22-14.45,84.52,84.52,0,0,1,2.27-19.56,82.49,82.49,0,0,1,37.1-51.6A77.59,77.59,0,0,1,1335,927a76.34,76.34,0,0,1,13.86,1.25h0a78.72,78.72,0,0,1,40.73,21h0a83.58,83.58,0,0,1,25.27,60.24,85.73,85.73,0,0,1-1.22,14.45Z"/><path class="cls-9" d="M1052.43,1021H892.7c.44-41.42,24.58-76.28,57.5-87.34A70.1,70.1,0,0,1,972.56,930c22.34,0,42.54,10.59,57,27.63,12.36,14.55,20.59,33.81,22.45,55.24C1052.27,1015.54,1052.4,1018.26,1052.43,1021Z"/><path class="cls-7" d="M881.45,975.43A79.83,79.83,0,0,1,878.28,993H806.54l-1.44-1.16h0l-.44-.36c.14.46.29.91.44,1.36q-12.44-9.95-23.9-20.28a426.46,426.46,0,0,1-45.5-47.45l.38-.54a79.86,79.86,0,0,1,145.38,50.87Z"/><path class="cls-8" d="M774.62,932.43A79.83,79.83,0,0,1,771.45,950H753c-19.49-24.35-34.51-49.75-43.86-75.82-.11-.29-.22-.58-.32-.87-.23-.65-.46-1.31-.67-2a1,1,0,0,1-.08-.23q-1-2.83-1.85-5.69a185.94,185.94,0,0,1-4.62-18l.43,0a78.76,78.76,0,0,1,29.7,8.64,77.1,77.1,0,0,1,8.29,5,79.91,79.91,0,0,1,34.63,71.39Z"/><path class="cls-9" d="M955.59,992.79a93.39,93.39,0,0,1-4.32,28.21H824.51l-1.44-1.16h0l-.44-.36q-11.94-9.56-23-19.49l-.48-.43-3.24-2.94c0-1.27-.08-2.54-.08-3.82,0-31.1,15.06-58.39,37.69-73.71A75,75,0,0,1,875.72,906a72.32,72.32,0,0,1,12.72,1.11c.53.09,1,.18,1.57.29h0a67,67,0,0,1,7.48,1.87,74.85,74.85,0,0,1,17.91,8.2,79.38,79.38,0,0,1,13.68,10.75l.18.17a83.64,83.64,0,0,1,9,10.34,89.52,89.52,0,0,1,15,33.14A93.84,93.84,0,0,1,955.59,992.79Z"/><path class="cls-9" d="M822.8,949.48a89,89,0,0,1-1,13.35A88.48,88.48,0,0,1,804.12,1004c-.19.25-.38.49-.58.73l-1.9-1.7-.48-.43-3.24-2.94A437.62,437.62,0,0,1,765,966.17q-1.5-1.71-3-3.42c-.88-1-1.74-2-2.6-3-1.15-1.38-2.3-2.76-3.43-4.14l-.38-.46L754,953c-19.49-24.35-34.51-49.75-43.86-75.82-.11-.29-.22-.58-.32-.87-.59-1.65-1.14-3.3-1.67-5a1,1,0,0,1-.08-.23q-1-2.83-1.85-5.69l.09,0a87.73,87.73,0,0,1,28-4.55c1.91,0,3.8.06,5.68.19A87.54,87.54,0,0,1,771.33,869c1.28.59,2.55,1.21,3.79,1.87q.64.33,1.29.69c.84.45,1.68.92,2.5,1.4.5.29,1,.58,1.47.89l.36.22c.42.25.83.51,1.24.78l.64.41c.47.31.94.62,1.4.94l.21.14,1.28.89c.5.36,1,.71,1.47,1.07l1.17.89.94.73A88.74,88.74,0,0,1,800,890.11a4,4,0,0,1,.27.31c.78.87,1.54,1.75,2.28,2.65s1.64,2,2.42,3.07l1.11,1.5c.85,1.17,1.66,2.36,2.45,3.57l.69,1.08c.61,1,1.21,2,1.79,3,.26.44.51.88.74,1.32s.41.73.6,1.09c.31.58.62,1.16.91,1.75.68,1.34,1.33,2.69,1.93,4.07.47,1,.91,2.08,1.33,3.14q1.35,3.38,2.4,6.87c.65,2.12,1.23,4.27,1.71,6.45A87.88,87.88,0,0,1,822.8,949.48Z"/><path class="cls-8" d="M1440.82,888.43v95.15a80.25,80.25,0,0,1-14-64h0c.44-2.12,1-4.22,1.57-6.27a78.85,78.85,0,0,1,10.45-22.12c.19-.31.41-.62.62-.93C1439.92,889.66,1440.36,889,1440.82,888.43Z"/><path class="cls-9" d="M1272.07,1024H1144.31c14.56-21.25,37.75-35,63.88-35S1257.51,1002.75,1272.07,1024Z"/><path class="cls-9" d="M1441.48,1008h-.66v13h-28.08a80.55,80.55,0,0,1-10.32-13,80,80,0,0,1-12.32-37.38c-.13-1.86-.2-3.73-.2-5.62a79.16,79.16,0,0,1,1.58-15.81c0-.13,0-.25.07-.38s0-.13,0-.19h0a79.31,79.31,0,0,1,12.64-29.32,80.47,80.47,0,0,1,9.64-11.42l0,0,0,0h0a79.62,79.62,0,0,1,24.92-16.59c.64-.27,1.3-.54,2-.79v117.11Z"/><path class="cls-7" d="M1438.82,1022.61V1024h-1c.24-.36.49-.71.75-1.06Z"/><path class="cls-8" d="M844.25,997.57c.17.29.34.59.52.87V1024h97.84c-6.44-8.87-13.59-18.35-22.91-23.92a77.7,77.7,0,0,0-74.93-2.78C844.59,997.38,844.42,997.48,844.25,997.57Z"/><path class="cls-7" d="M870.11,1024h-43.6l-1.44-1.16h0l-.44-.36q-8.91-7.14-17.32-14.48c-1.26-1.09-2.5-2.19-3.74-3.29l0,0-1.9-1.7-.48-.43-3.24-2.94A437.62,437.62,0,0,1,765,966.17q-1.5-1.71-3-3.42,3.06-1.25,6.25-2.22a80.12,80.12,0,0,1,34.31-2.8,78.42,78.42,0,0,1,19.17,5.1,77.59,77.59,0,0,1,10,4.91,80.31,80.31,0,0,1,25.76,23.82c.13.18.25.37.37.55s.4.59.59.89c.43.64.85,1.29,1.25,2l.46.74A50.68,50.68,0,0,1,863,1001a107.92,107.92,0,0,1,6.44,20C869.7,1022,869.91,1023,870.11,1024Z"/><path class="cls-7" d="M1439.82,1021v-13h.66l-.66-.46v-1c-.69-.58-1.4-1.14-2.1-1.68l-.06-.05a76.42,76.42,0,0,0-23.52-12.33,73.09,73.09,0,0,0-8.36-2.13h0a71.85,71.85,0,0,0-13.19-1.31h-.68a73.55,73.55,0,0,0-23.05,3.7,75.67,75.67,0,0,0-17.46,8.38,79.24,79.24,0,0,0-9.17,6.92,83.74,83.74,0,0,0-12.06,13q-1.11,1.47-2.16,3h111.82v-1.39c.38-.54.77-1.08,1.18-1.61Z"/><path class="cls-7" d="M1041,1024.5H913.16a81.27,81.27,0,0,1,23.39-21.61,77.59,77.59,0,0,1,40.51-11.39,76.34,76.34,0,0,1,13.86,1.25h0a78.63,78.63,0,0,1,40.73,21h0A81.76,81.76,0,0,1,1041,1024.5Z"/><path class="cls-48" d="M822.45,955c-5.67-52.26-43.24-80.64-51.12-86a88.89,88.89,0,0,1,45.19,47.68q1.35,3.38,2.4,6.87A92,92,0,0,1,822.45,955Z"/><path class="cls-48" d="M1412.94,907.81s-30,26.19-24,68.19C1388.9,976,1388.06,939.63,1412.94,907.81Z"/><path class="cls-48" d="M1269,961.93S1251.12,987,1255.11,1013A116.69,116.69,0,0,1,1269,961.93Z"/><path class="cls-48" d="M896.84,908.87s51.86,14.23,57.69,70C954.53,978.83,947.64,936.1,896.84,908.87Z"/><path class="cls-48" d="M1049.54,997.48s-10.08-46.48-49-61.48C1000.52,936,1039.46,961,1049.54,997.48Z"/><path class="cls-49" d="M1439.82,1006.36v1.18l-4.07-2.87-.07,0L1425,997.07l.1,0a119.19,119.19,0,0,1,12.57,7.66l.06.05Q1438.76,1005.57,1439.82,1006.36Z"/><polygon class="cls-3" points="1365.99 225.94 1364.44 216.5 1362.89 225.94 1353.46 227.5 1362.89 229.06 1364.44 238.5 1365.99 229.06 1375.42 227.5 1365.99 225.94"/><polygon class="cls-3" points="1304.09 160.94 1302.54 151.5 1300.98 160.94 1291.56 162.5 1300.98 164.06 1302.54 173.5 1304.09 164.06 1313.52 162.5 1304.09 160.94"/><polygon class="cls-3" points="1386.4 140.5 1384.85 149.94 1375.42 151.5 1384.85 153.06 1386.4 162.5 1387.96 153.06 1397.39 151.5 1387.96 149.94 1386.4 140.5"/><polygon class="cls-3" points="1381.41 370.5 1379.86 379.94 1370.43 381.5 1379.86 383.06 1381.41 392.5 1382.97 383.06 1392.4 381.5 1382.97 379.94 1381.41 370.5"/><polygon class="cls-3" points="1413.36 305.5 1411.81 314.94 1402.38 316.5 1411.81 318.06 1413.36 327.5 1414.92 318.06 1424.35 316.5 1414.92 314.94 1413.36 305.5"/><polygon class="cls-3" points="1213.68 389.5 1212.13 398.94 1202.7 400.5 1212.13 402.06 1213.68 411.5 1215.23 402.06 1224.66 400.5 1215.23 398.94 1213.68 389.5"/><polygon class="cls-3" points="1151.78 324.5 1150.22 333.94 1140.8 335.5 1150.22 337.06 1151.78 346.5 1153.33 337.06 1162.76 335.5 1153.33 333.94 1151.78 324.5"/><polygon class="cls-3" points="1235.64 313.5 1234.09 322.94 1224.66 324.5 1234.09 326.06 1235.64 335.5 1237.2 326.06 1246.63 324.5 1237.2 322.94 1235.64 313.5"/><polygon class="cls-3" points="1324.5 270.5 1322.95 279.94 1313.52 281.5 1322.95 283.06 1324.5 292.5 1326.06 283.06 1335.49 281.5 1326.06 279.94 1324.5 270.5"/><polygon class="cls-3" points="1183.73 259.5 1182.17 268.94 1172.74 270.5 1182.17 272.06 1183.73 281.5 1185.28 272.06 1194.71 270.5 1185.28 268.94 1183.73 259.5"/><polygon class="cls-3" points="1324.5 341.5 1322.95 350.94 1313.52 352.5 1322.95 354.06 1324.5 363.5 1326.06 354.06 1335.49 352.5 1326.06 350.94 1324.5 341.5"/><polygon class="cls-3" points="1254.61 227.5 1253.06 236.94 1243.63 238.5 1253.06 240.06 1254.61 249.5 1256.17 240.06 1265.6 238.5 1256.17 236.94 1254.61 227.5"/><ellipse class="cls-50" cx="1236.14" cy="403" rx="67.89" ry="68"/><path class="cls-3" d="M1256.43,447.42a13.25,13.25,0,0,1-18.75,0,11.15,11.15,0,0,1-1.11-1.29,13.27,13.27,0,0,1,18.57-18.64,15.25,15.25,0,0,1,1.29,1.14A13.28,13.28,0,0,1,1256.43,447.42Z"/><path class="cls-4" d="M1254,445a11.65,11.65,0,1,1,1.14-17.5A13.22,13.22,0,0,1,1254,445Z"/><path class="cls-3" d="M1223.9,410a20.37,20.37,0,0,1-28.86,0,15.83,15.83,0,0,1-1.72-2,20.42,20.42,0,1,1,30.58,2Z"/><path class="cls-4" d="M1220.17,406.25a17.94,17.94,0,1,1,1.76-26.95A20.37,20.37,0,0,1,1220.17,406.25Z"/><path class="cls-4" d="M1278.67,372.69a12,12,0,0,1-6.38,15.65,10.44,10.44,0,0,1-1.46.49,11.95,11.95,0,0,1-9.17-21.85,12.84,12.84,0,0,1,1.39-.69A11.91,11.91,0,0,1,1278.67,372.69Z"/><path class="cls-3" d="M1275.83,373.89a10.48,10.48,0,1,1-14.17-6.91A12,12,0,0,1,1275.83,373.89Z"/></g></svg>